<svg id="e0116b41-467f-4f6c-be1b-078e8dccacd8" data-name="Layer 1" xmlns="http://www.w3.org/2000/svg" viewBox="0 0 889.5991 272.9004">
  <g>
    <path d="M665.6328,510.4688V476.0449h95.5078q0,37.062-13.4023,58.74-13.4034,21.6811-38.9649,34.1308-25.5644,12.4527-57.35,12.4512-55.2275,0-84.7407-29.59-29.5188-29.5876-29.5166-75.1464,0-31.6407,14.6484-55.8838a94.3632,94.3632,0,0,1,39.4043-36.5479,119.0935,119.0935,0,0,1,53.7593-12.3047q41.0127,0,63.8672,19.9219V375.1172h34.57v72.3633h-34.57a50.7123,50.7123,0,0,0-21.5332-28.8575,61.9809,61.9809,0,0,0-34.57-10.5468,56.3544,56.3544,0,0,0-41.4551,17.2119q-17.138,17.2142-17.1382,47.6807,0,34.8647,17.4312,53.1005t42.48,18.2373q18.457,0,30.6153-8.9355,12.1581-8.9334,16.8457-24.9023Z" transform="translate(-537.1665 -371.8945)" fill="#013370"/>
    <path d="M785.75,527.7539V488.2031h81.8848v39.5508Z" transform="translate(-537.1665 -371.8945)" fill="#013370"/>
    <path d="M922.5664,578.877V544.4531h30.6152V409.541H922.5664v47.461h-35.01V375.1172h184.7168V457.002h-34.57V409.541H1006.209V544.4531h30.6152V578.877Z" transform="translate(-537.1665 -371.8945)" fill="#013370"/>
    <path d="M1239.998,546.2109V578.877h-68.1152V567.6709q-18.3135,13.2591-38.6719,13.2568-21.0937,0-36.4013-12.0117Q1081.5,556.9066,1081.502,536.69q0-20.3592,16.1132-34.1309,16.1118-13.7673,41.6016-13.7695,14.2061,0,32.666,7.1777v-8.6426q0-10.8384-7.3242-17.7978-7.3272-6.9558-19.6289-6.958a35.0873,35.0873,0,0,0-26.0742,11.1328l-36.4746-6.5918q15.82-33.5427,68.7011-33.5449,20.5063,0,33.9844,4.6142,13.4751,4.6143,20.0684,11.9385a42.92,42.92,0,0,1,9.3017,16.04q2.7085,8.7174,2.71,28.3448v51.7089Zm-68.1152-19.7754q-16.4078-10.2516-26.2207-10.2539a23.808,23.808,0,0,0-14.1357,4.5411q-6.3721,4.5424-6.3721,13.1835a18.98,18.98,0,0,0,5.1269,13.33,17.1079,17.1079,0,0,0,13.1836,5.5664q12.5963,0,28.418-14.7949Z" transform="translate(-537.1665 -371.8945)" fill="#013370"/>
    <path d="M1426.7656,437.08v32.666h-23.4375V574.5693q0,70.2233-74.1211,70.2256-42.4833,0-63.2812-15.3808l21.9726-30.0293q17.1387,10.5468,34.4239,10.5468,15.0849,0,25.415-7.7636,10.3272-7.766,10.3272-30.1758v-10.84q-22.1207,19.7754-43.0665,19.7754-24.6093,0-41.9677-20.581-17.3584-20.579-17.3584-52.5147,0-32.08,17.8711-52.5146t43.6523-20.4346q24.753,0,40.8692,19.5923V437.08Zm-68.5547,71.3379q0-17.1387-7.6171-27.1-7.6188-9.96-20.8008-9.961-13.48,0-20.5811,10.2539-7.1074,10.2553-7.1045,26.3672,0,16.1156,7.3975,26.294,7.3946,10.1827,20.2881,10.1806,11.8652,0,20.1416-9.4482Q1358.208,525.5567,1358.2109,508.418Z" transform="translate(-537.1665 -371.8945)" fill="#013370"/>
  </g>
</svg>
