<svg id="Layer_1" data-name="Layer 1" xmlns="http://www.w3.org/2000/svg" viewBox="0 0 889.6 272.9"><path d="M1020.12,447.48V413.06h95.51q0,37.05-13.4,58.74t-39,34.13q-25.57,12.45-57.35,12.45-55.23,0-84.74-29.59t-29.52-75.15q0-31.63,14.65-55.88a94.35,94.35,0,0,1,39.4-36.55,119.12,119.12,0,0,1,53.76-12.3q41,0,63.87,19.92v-16.7h34.57v72.36h-34.57a50.77,50.77,0,0,0-21.54-28.86,62,62,0,0,0-34.57-10.54,56.36,56.36,0,0,0-41.45,17.21Q948.64,379.52,948.64,410q0,34.86,17.43,53.1t42.48,18.24q18.47,0,30.62-8.94t16.84-24.9Z" transform="translate(-891.66 -308.91)"/><path d="M1140.24,464.77V425.21h81.89v39.56Z" transform="translate(-891.66 -308.91)"/><path d="M1277.06,515.89V481.46h30.61V346.55h-30.61V394h-35V312.13h184.72V394H1392.2V346.55h-31.5V481.46h30.62v34.43Z" transform="translate(-891.66 -308.91)"/><path d="M1594.49,483.22v32.67h-68.11V504.68q-18.32,13.26-38.68,13.26-21.09,0-36.4-12T1436,473.7q0-20.35,16.12-34.13t41.6-13.77q14.2,0,32.67,7.18v-8.64q0-10.84-7.33-17.8t-19.63-7a35.07,35.07,0,0,0-26.07,11.13l-36.48-6.59q15.83-33.54,68.7-33.54,20.52,0,34,4.61t20.07,11.94a43,43,0,0,1,9.3,16q2.7,8.71,2.71,28.34v51.71Zm-68.11-19.77q-16.41-10.26-26.23-10.26a23.85,23.85,0,0,0-14.13,4.54q-6.37,4.54-6.37,13.19a19,19,0,0,0,5.12,13.33,17.12,17.12,0,0,0,13.19,5.56q12.58,0,28.42-14.79Z" transform="translate(-891.66 -308.91)"/><path d="M1781.26,374.09v32.67h-23.44V511.58q0,70.23-74.12,70.23-42.48,0-63.28-15.38l22-30q17.14,10.54,34.42,10.54,15.09,0,25.42-7.76T1712.56,509V498.16q-22.12,19.79-43.07,19.78-24.62,0-42-20.58t-17.36-52.52q0-32.07,17.88-52.51t43.65-20.44q24.75,0,40.87,19.6v-17.4Zm-68.56,71.34q0-17.15-7.61-27.1t-20.8-10q-13.49,0-20.59,10.25T1656.6,445q0,16.11,7.4,26.29t20.29,10.18q11.87,0,20.14-9.44T1712.7,445.43Z" transform="translate(-891.66 -308.91)"/></svg>