<svg version="1.1" id="Layer_1" xmlns="http://www.w3.org/2000/svg" xmlns:xlink="http://www.w3.org/1999/xlink" x="0px" y="0px"
	 width="100%" viewBox="0 0 224 191" enable-background="new 0 0 224 191" xml:space="preserve">
<path fill="#000000" opacity="1.000000" stroke="none" 
	d="
M225.000000,66.000000 
	C225.000000,108.333336 225.000000,150.166672 225.000000,192.000000 
	C150.333328,192.000000 75.666664,192.000000 1.000000,192.000000 
	C1.000000,128.333328 1.000000,64.666664 1.000000,1.000000 
	C75.666664,1.000000 150.333328,1.000000 225.000000,1.000000 
	C225.000000,22.500000 225.000000,44.000000 225.000000,66.000000 
M208.000610,144.004822 
	C208.000610,144.004822 208.104782,144.066757 208.616379,143.759491 
	C208.808609,143.206055 209.000854,142.652634 209.607483,141.860092 
	C209.856445,141.650421 210.045151,141.396042 210.732956,140.732086 
	C211.771011,138.818939 212.809082,136.905807 214.156418,134.375000 
	C214.812012,132.941711 215.467606,131.508423 216.717575,129.670013 
	C217.753494,126.775192 218.789413,123.880371 220.208145,120.315971 
	C220.751495,117.876007 221.294861,115.436050 221.966354,112.154701 
	C222.256683,109.431732 222.547012,106.708771 222.958038,103.084961 
	C222.916977,100.053200 222.875900,97.021446 222.963943,93.096397 
	C222.597305,89.416718 222.230667,85.737030 221.962082,81.238525 
	C220.416840,75.826851 218.871613,70.415184 217.326370,65.003510 
	C216.587509,65.123466 215.848648,65.243431 215.109787,65.363388 
	C215.465851,71.236946 215.821930,77.110512 215.821640,83.671112 
	C215.267319,86.110489 214.712997,88.549866 213.999008,91.678001 
	C213.624741,94.105125 213.250458,96.532257 212.278564,99.306969 
	C211.829849,100.821915 211.381134,102.336868 210.271423,104.182411 
	C209.147324,107.110863 208.023209,110.039314 206.302017,113.241852 
	C205.242203,114.501259 204.182388,115.760674 203.063507,117.503090 
	C203.063507,117.503090 203.172256,117.977379 202.938446,118.507492 
	C202.583038,118.958794 202.227646,119.410088 201.143921,119.938347 
	C200.745865,120.930122 200.347824,121.921898 199.259552,123.011314 
	C197.461517,124.968063 195.663498,126.924812 193.319214,129.146179 
	C192.527634,130.052063 191.736069,130.957947 190.323196,132.215973 
	C187.839279,134.128983 185.355362,136.041992 182.320282,138.014374 
	C181.867294,138.278763 181.414291,138.543152 180.244064,138.922394 
	C176.499405,140.959534 172.754730,142.996674 168.326782,145.257889 
	C165.197357,146.446823 162.067917,147.635773 158.159027,148.920319 
	C153.098785,150.309647 148.038559,151.698990 142.149551,152.945786 
	C137.106155,153.255081 132.065063,153.693558 127.017754,153.783676 
	C125.740570,153.806488 124.443550,152.718048 123.704720,152.012573 
	C124.148064,151.708954 124.591408,151.405350 125.665154,151.265579 
	C134.374039,152.431259 142.056808,149.649765 149.654816,146.542252 
	C149.544495,145.748627 149.434174,144.955002 149.323853,144.161377 
	C140.553741,144.161377 131.783615,144.161377 122.228294,144.032715 
	C118.828590,143.031982 115.428894,142.031235 111.286613,140.889633 
	C110.539299,140.966278 109.791977,141.042923 108.373650,140.793213 
	C104.516640,139.450500 100.431396,138.548584 96.841568,136.689865 
	C80.064896,128.003281 64.450623,117.924988 56.230259,99.781784 
	C54.398800,95.739571 52.603680,91.680878 50.876930,86.910706 
	C51.038254,86.216057 51.373600,85.511345 51.334061,84.828323 
	C50.924400,77.751862 50.559299,70.669289 49.914116,63.612892 
	C49.782063,62.168613 48.537209,60.826084 47.805309,59.436653 
	C47.341606,59.620522 46.877907,59.804394 46.414207,59.988262 
	C45.903599,61.646282 45.392990,63.304298 44.199768,65.247826 
	C43.191292,67.835503 42.182816,70.423180 40.861710,73.813042 
	C40.308056,72.248520 40.014389,71.418678 39.973278,69.692871 
	C40.357723,67.118263 40.578331,64.505577 41.165733,61.978138 
	C42.007275,58.357216 43.116650,54.798538 44.759941,50.912258 
	C47.209881,46.630653 49.659824,42.349049 52.689240,37.750111 
	C54.142807,35.883385 55.596378,34.016659 57.652969,31.842503 
	C61.144886,28.578314 64.636803,25.314125 68.701881,21.734194 
	C70.473831,20.438969 72.245781,19.143744 74.699318,17.724398 
	C78.163780,15.877772 81.628250,14.031147 85.806885,12.014187 
	C89.513885,10.184946 93.220886,8.355704 98.137276,5.929680 
	C91.307976,2.898982 86.697052,5.421294 81.224915,7.000433 
	C77.817360,8.030052 74.409798,9.059670 70.305679,10.268244 
	C67.523979,11.462815 64.742279,12.657388 61.244396,13.978193 
	C58.144592,15.607165 55.044785,17.236137 51.328091,19.191881 
	C47.855618,21.752018 44.383148,24.312155 40.225647,27.000933 
	C36.437550,30.650848 32.649452,34.300762 28.286701,38.282135 
	C23.752125,42.562843 18.866129,46.576057 16.672810,53.541805 
	C15.739434,54.564156 14.431150,55.431507 13.933910,56.634178 
	C10.851555,64.089470 7.951384,71.620071 4.180659,79.302048 
	C3.925697,80.544456 3.419188,81.794815 3.458205,83.027924 
	C3.653738,89.207558 3.992093,95.382668 4.104674,102.414528 
	C4.616387,109.234688 5.352025,115.892319 7.762689,122.497009 
	C13.167564,137.305145 21.241407,150.417984 32.834393,160.823822 
	C41.554733,168.651169 51.547089,174.871094 62.538036,179.774704 
	C76.039169,185.798233 89.838043,188.779205 104.423485,189.617462 
	C122.715523,190.668762 140.606491,189.155746 158.663132,182.876801 
	C161.161957,181.655960 163.660782,180.435120 166.850967,179.049210 
	C171.975433,176.089188 177.099915,173.129181 182.761826,169.781693 
	C185.165375,167.828674 187.568924,165.875671 190.644104,163.845200 
	C192.877472,161.374069 195.110840,158.902939 197.358429,156.379364 
	C197.358429,156.379364 197.329071,156.331497 197.934448,156.254364 
	C198.651367,155.532944 199.368271,154.811508 200.081100,154.062073 
	C200.081100,154.062073 200.097946,154.084259 200.704269,153.781616 
	C202.941528,150.946121 205.178802,148.110626 207.471909,145.199112 
	C207.471909,145.199112 207.429718,145.114731 207.907547,145.021652 
	C208.071838,144.725998 208.136597,144.409912 208.000610,144.004822 
M198.991653,104.119987 
	C198.937637,93.404617 198.883606,82.689255 198.946198,71.046608 
	C198.920792,62.376949 198.895386,53.707294 198.975739,44.353504 
	C198.928131,43.896729 198.880524,43.439957 198.962753,42.118595 
	C198.920532,40.072346 198.878326,38.026096 198.958359,35.111595 
	C198.916794,33.069153 198.875244,31.026712 198.967422,28.158978 
	C198.924164,26.769897 198.880905,25.380819 198.977417,23.181444 
	C198.978561,16.988892 196.156967,12.833191 189.705383,10.202515 
	C161.437271,10.135936 133.169159,10.062657 104.901016,10.043326 
	C104.228470,10.042867 103.555519,10.646256 102.327621,11.149121 
	C101.927864,11.764542 101.528114,12.379962 100.835892,13.567971 
	C99.867180,14.338472 98.898468,15.108974 97.378586,16.206453 
	C96.556129,17.422733 95.733681,18.639013 94.199944,19.938053 
	C92.092682,22.277678 89.985420,24.617300 87.323059,27.196117 
	C86.530342,28.097504 85.737625,28.998892 84.345764,30.200224 
	C82.254776,32.136673 80.163788,34.073120 77.749512,36.563778 
	C77.138947,37.335129 76.528381,38.106483 75.258568,39.247101 
	C71.795486,43.021305 72.440933,47.437939 73.834328,51.622543 
	C75.218735,55.780128 79.035927,56.386658 82.935371,56.634468 
	C86.969856,56.890862 90.985291,57.446896 95.705666,57.925343 
	C98.149849,57.650768 100.594025,57.376194 103.743896,57.303581 
	C105.163513,57.480209 106.583130,57.656841 108.750801,57.952648 
	C109.504295,57.911129 110.257797,57.869614 111.860405,57.948235 
	C113.571495,57.920670 115.282578,57.893105 117.677284,58.231667 
	C119.798203,58.189754 121.919128,58.147839 124.805756,58.332230 
	C127.208992,58.497059 129.612228,58.661888 132.841660,58.955688 
	C134.231247,58.912334 135.620819,58.868977 137.836227,58.962696 
	C139.227249,58.919285 140.618256,58.875874 142.802094,58.968544 
	C143.870285,58.924103 144.938461,58.879658 146.774094,58.998093 
	C150.513306,59.506950 150.038330,62.412395 150.011719,65.803978 
	C150.399292,68.530823 150.786850,71.257675 151.023712,74.811073 
	C151.063461,78.205650 151.103210,81.600220 151.074646,85.495735 
	C151.106918,85.661148 151.139175,85.826553 151.043625,86.734993 
	C151.086502,87.485390 151.129379,88.235779 151.308472,89.711098 
	C151.601974,91.136124 151.895493,92.561157 152.052933,94.813408 
	C152.093613,96.207062 152.134293,97.600723 152.050034,99.902390 
	C152.075943,103.244377 152.101852,106.586365 152.062485,110.613777 
	C152.097595,111.070557 152.132706,111.527336 152.118423,112.784821 
	C152.474747,115.190697 152.831070,117.596573 153.073349,120.900459 
	C153.054199,122.390007 153.054337,123.880089 153.012268,125.368996 
	C152.884583,129.888321 153.870773,134.022705 158.289474,136.121338 
	C162.619629,138.177917 168.506836,136.223083 172.648499,131.706955 
	C176.803711,127.496307 180.958908,123.285652 185.677673,118.779404 
	C186.814133,117.540977 187.950577,116.302559 189.684311,114.760399 
	C192.167816,112.195511 194.651306,109.630623 197.568710,106.893761 
	C197.840286,106.708092 198.008484,106.454002 198.531097,105.929619 
	C198.858505,105.723145 198.973434,105.432648 198.991653,104.119987 
z"/>
<path fill="#033571" opacity="1.000000" stroke="none" 
	d="
M50.791828,87.629776 
	C52.603680,91.680878 54.398800,95.739571 56.230259,99.781784 
	C64.450623,117.924988 80.064896,128.003281 96.841568,136.689865 
	C100.431396,138.548584 104.516640,139.450500 108.923386,141.154419 
	C110.325150,141.353912 111.177170,141.192200 112.029198,141.030487 
	C115.428894,142.031235 118.828590,143.031982 122.635895,144.457275 
	C123.707245,146.955154 124.371002,149.028442 125.034760,151.101746 
	C124.591408,151.405350 124.148064,151.708954 123.100372,151.804291 
	C118.124130,151.331940 113.752235,151.067886 109.380348,150.803833 
	C109.270081,151.214584 109.159821,151.625336 109.049561,152.036087 
	C110.295776,152.628876 111.501587,153.613220 112.795197,153.746735 
	C118.430824,154.328308 124.103722,154.554260 129.735336,155.165207 
	C131.082794,155.311386 132.470566,156.255981 133.589417,157.147583 
	C140.456192,162.619568 147.275986,168.151459 154.058044,173.728333 
	C156.930878,176.090683 159.771500,178.569641 157.957306,182.959076 
	C140.606491,189.155746 122.715523,190.668762 104.423485,189.617462 
	C89.838043,188.779205 76.039169,185.798233 62.538036,179.774704 
	C51.547089,174.871094 41.554733,168.651169 32.834393,160.823822 
	C21.241407,150.417984 13.167564,137.305145 7.762689,122.497009 
	C5.352025,115.892319 4.616387,109.234688 3.876838,101.681229 
	C4.096245,93.673843 4.543489,86.399765 4.990733,79.125679 
	C7.951384,71.620071 10.851555,64.089470 13.933910,56.634178 
	C14.431150,55.431507 15.739434,54.564156 17.172352,53.137974 
	C18.299973,52.738270 19.151178,52.476418 19.521854,52.787373 
	C23.540176,56.158318 27.579870,59.515476 31.411942,63.092571 
	C33.899681,65.414780 36.054577,68.093552 38.400543,71.033432 
	C38.269058,74.872734 38.095638,78.291168 37.922215,81.709602 
	C38.346085,81.932083 38.769955,82.154564 39.193825,82.377037 
	C39.921227,81.410988 40.943943,80.548431 41.325047,79.461006 
	C42.999756,74.682442 44.489082,69.838898 46.426563,65.204163 
	C48.135620,72.802872 49.463722,80.216324 50.791828,87.629776 
z"/>
<path fill="#053E77" opacity="1.000000" stroke="none" 
	d="
M182.224380,170.169159 
	C177.099915,173.129181 171.975433,176.089188 166.320251,178.829987 
	C158.356613,172.617081 150.867233,166.691406 143.521393,160.592819 
	C140.952682,158.460251 139.820847,155.828278 142.978317,153.088318 
	C148.038559,151.698990 153.098785,150.309647 158.562317,149.286682 
	C159.808014,151.849152 160.152283,154.481339 161.606186,156.142090 
	C163.955154,158.825241 166.821671,161.210983 169.857315,163.098938 
	C173.879532,165.600510 176.258530,171.086807 182.224380,170.169159 
z"/>
<path fill="#053E77" opacity="1.000000" stroke="none" 
	d="
M38.358604,70.612572 
	C36.054577,68.093552 33.899681,65.414780 31.411942,63.092571 
	C27.579870,59.515476 23.540176,56.158318 19.521854,52.787373 
	C19.151178,52.476418 18.299973,52.738270 17.389444,52.851765 
	C18.866129,46.576057 23.752125,42.562843 28.925611,38.183670 
	C34.413570,42.461227 39.262619,46.837254 44.111671,51.213280 
	C43.116650,54.798538 42.007275,58.357216 41.165733,61.978138 
	C40.578331,64.505577 40.357723,67.118263 39.640060,70.297012 
	C38.990765,70.804970 38.674683,70.708771 38.358604,70.612572 
z"/>
<path fill="#018BAF" opacity="1.000000" stroke="none" 
	d="
M101.128365,12.995382 
	C101.528114,12.379962 101.927864,11.764542 102.958305,11.161634 
	C104.076256,11.175600 104.563530,11.177053 105.353195,11.385713 
	C109.443047,12.427164 113.230507,13.261410 117.079720,14.432945 
	C118.674835,16.890697 119.885025,19.375967 121.796661,21.069412 
	C130.793991,29.039780 140.049515,36.718861 149.038101,44.698776 
	C150.483383,45.981873 151.044022,48.261429 151.576080,50.065147 
	C149.103668,49.951916 147.068787,49.853882 144.751099,49.563194 
	C142.978012,48.935055 141.487747,48.499565 139.941940,47.721031 
	C139.489258,46.665352 139.243469,45.787514 138.672592,45.264469 
	C127.264290,34.811886 115.837051,24.379612 104.338280,14.026937 
	C103.576347,13.340949 102.212334,13.323688 101.128365,12.995382 
z"/>
<path fill="#03457C" opacity="1.000000" stroke="none" 
	d="
M182.493103,169.975433 
	C176.258530,171.086807 173.879532,165.600510 169.857315,163.098938 
	C166.821671,161.210983 163.955154,158.825241 161.606186,156.142090 
	C160.152283,154.481339 159.808014,151.849152 158.952057,149.238892 
	C162.067917,147.635773 165.197357,146.446823 168.825150,145.437531 
	C171.050537,147.390976 172.661301,149.299210 174.526932,150.912766 
	C179.617935,155.315887 184.816528,159.594635 189.972488,163.922668 
	C187.568924,165.875671 185.165375,167.828674 182.493103,169.975433 
z"/>
<path fill="#01729E" opacity="1.000000" stroke="none" 
	d="
M151.172272,88.986176 
	C151.129379,88.235779 151.086502,87.485390 151.476593,86.368553 
	C153.739868,86.966957 155.622330,87.845978 157.387283,88.918388 
	C159.585571,90.254120 161.686920,91.749397 163.830139,93.175774 
	C164.216080,92.773521 164.602005,92.371269 164.987946,91.969009 
	C164.333588,89.989433 163.679214,88.009850 163.021881,85.693604 
	C163.019791,84.908203 163.020660,84.459457 163.399567,84.011375 
	C165.618469,84.941757 167.744370,85.544235 169.251633,86.857002 
	C176.349701,93.039162 183.144852,99.576065 190.372040,105.597572 
	C191.943298,106.906715 194.845566,106.618332 197.134811,107.065727 
	C194.651306,109.630623 192.167816,112.195511 189.145844,114.667244 
	C181.964203,107.885712 175.321014,101.197334 168.346420,94.175308 
	C165.406143,98.311630 163.476776,98.024597 160.783051,95.514465 
	C157.983032,92.905281 154.408249,91.127510 151.172272,88.986176 
z"/>
<path fill="#019CBA" opacity="1.000000" stroke="none" 
	d="
M198.836105,35.979851 
	C198.878326,38.026096 198.920532,40.072346 198.567703,42.485878 
	C193.064377,39.565208 187.956100,36.277252 182.637497,32.711006 
	C181.161530,31.188145 180.075775,29.623386 178.582291,28.784395 
	C176.916046,27.848349 174.879379,27.571671 172.943115,26.667387 
	C171.809448,25.149870 170.779221,23.930460 169.655991,22.803782 
	C165.779602,18.915518 161.870789,15.059591 158.430664,11.113468 
	C162.579941,11.088246 166.272842,11.140909 169.987732,11.545350 
	C172.027100,14.167931 173.770477,16.783260 176.112503,18.645861 
	C183.567200,24.574545 191.244690,30.223078 198.836105,35.979851 
z"/>
<path fill="#016996" opacity="1.000000" stroke="none" 
	d="
M151.240372,89.348633 
	C154.408249,91.127510 157.983032,92.905281 160.783051,95.514465 
	C163.476776,98.024597 165.406143,98.311630 168.346420,94.175308 
	C175.321014,101.197334 181.964203,107.885712 188.847198,114.819115 
	C187.950577,116.302559 186.814133,117.540977 185.079987,118.773834 
	C179.645325,115.002739 174.830353,111.208534 169.965759,107.479034 
	C164.062042,102.952888 158.116455,98.481354 152.188995,93.986183 
	C151.895493,92.561157 151.601974,91.136124 151.240372,89.348633 
z"/>
<path fill="#035F8F" opacity="1.000000" stroke="none" 
	d="
M152.120972,94.399796 
	C158.116455,98.481354 164.062042,102.952888 169.965759,107.479034 
	C174.830353,111.208534 179.645325,115.002739 184.798187,118.921638 
	C180.958908,123.285652 176.803711,127.496307 172.105011,131.841980 
	C171.390686,131.968811 171.219849,131.960602 171.045044,131.520065 
	C170.698029,128.388474 170.354980,125.689194 170.011276,122.576706 
	C169.672333,119.777466 169.334030,117.391434 168.982452,114.634659 
	C165.648422,106.669365 158.550034,103.229652 152.174973,98.994377 
	C152.134293,97.600723 152.093613,96.207062 152.120972,94.399796 
z"/>
<path fill="#0181A8" opacity="1.000000" stroke="none" 
	d="
M100.982132,13.281677 
	C102.212334,13.323688 103.576347,13.340949 104.338280,14.026937 
	C115.837051,24.379612 127.264290,34.811886 138.672592,45.264469 
	C139.243469,45.787514 139.489258,46.665352 139.569611,47.709736 
	C138.508530,48.053085 137.764221,48.064686 136.653091,48.036774 
	C134.865479,47.683472 133.444702,47.369678 131.731140,46.916222 
	C130.622025,46.502708 129.805679,46.228859 128.976929,45.594955 
	C127.692497,43.378174 126.725327,41.181690 125.097748,39.721157 
	C116.130859,31.674625 107.002632,23.807884 97.929749,15.879474 
	C98.898468,15.108974 99.867180,14.338472 100.982132,13.281677 
z"/>
<path fill="#0179A3" opacity="1.000000" stroke="none" 
	d="
M97.654167,16.042963 
	C107.002632,23.807884 116.130859,31.674625 125.097748,39.721157 
	C126.725327,41.181690 127.692497,43.378174 128.602585,45.607796 
	C127.490761,45.981716 126.740883,45.982738 125.652992,45.823212 
	C122.887009,45.120216 120.459045,44.577770 117.741898,43.982460 
	C116.969421,43.618969 116.486122,43.308346 116.194427,42.769661 
	C115.835464,41.453407 115.541054,40.076435 114.692703,39.323986 
	C109.270386,34.514576 103.638649,29.938776 98.279182,25.062597 
	C96.800941,23.717661 96.014885,21.611938 94.911224,19.855297 
	C95.733681,18.639013 96.556129,17.422733 97.654167,16.042963 
z"/>
<path fill="#05477D" opacity="1.000000" stroke="none" 
	d="
M44.435806,51.062767 
	C39.262619,46.837254 34.413570,42.461227 29.212938,38.017941 
	C32.649452,34.300762 36.437550,30.650848 40.727264,27.253414 
	C44.855843,31.026413 48.482803,34.546928 52.109764,38.067444 
	C49.659824,42.349049 47.209881,46.630653 44.435806,51.062767 
z"/>
<path fill="#044E82" opacity="1.000000" stroke="none" 
	d="
M190.308289,163.883942 
	C184.816528,159.594635 179.617935,155.315887 174.526932,150.912766 
	C172.661301,149.299210 171.050537,147.390976 169.166779,145.325500 
	C172.754730,142.996674 176.499405,140.959534 180.480743,139.199951 
	C180.675278,140.590988 180.140945,142.278610 180.666870,142.729462 
	C186.127991,147.411209 191.759796,151.893860 197.344193,156.431808 
	C195.110840,158.902939 192.877472,161.374069 190.308289,163.883942 
z"/>
<path fill="#0179A3" opacity="1.000000" stroke="none" 
	d="
M197.351761,106.979744 
	C194.845566,106.618332 191.943298,106.906715 190.372040,105.597572 
	C183.144852,99.576065 176.349701,93.039162 169.251633,86.857002 
	C167.744370,85.544235 165.618469,84.941757 163.380600,83.663948 
	C162.662216,82.218590 162.340820,81.121323 162.016586,79.605377 
	C162.009369,77.791145 162.004990,76.395592 162.343384,75.060677 
	C170.799515,81.922791 178.839310,88.815002 187.061630,95.482079 
	C190.457642,98.235725 194.245300,100.506340 197.892090,103.345230 
	C197.948990,104.160820 197.968643,104.627823 198.007477,105.354172 
	C198.042206,105.786163 198.057770,105.958832 198.073318,106.131493 
	C198.008484,106.454002 197.840286,106.708092 197.351761,106.979744 
z"/>
<path fill="#093D77" opacity="1.000000" stroke="none" 
	d="
M142.563934,153.017059 
	C139.820847,155.828278 140.952682,158.460251 143.521393,160.592819 
	C150.867233,166.691406 158.356613,172.617081 165.974579,178.912521 
	C163.660782,180.435120 161.161957,181.655960 158.310211,182.917938 
	C159.771500,178.569641 156.930878,176.090683 154.058044,173.728333 
	C147.275986,168.151459 140.456192,162.619568 133.589417,157.147583 
	C132.470566,156.255981 131.082794,155.311386 129.735336,155.165207 
	C124.103722,154.554260 118.430824,154.328308 112.795197,153.746735 
	C111.501587,153.613220 110.295776,152.628876 109.049561,152.036087 
	C109.159821,151.625336 109.270081,151.214584 109.380348,150.803833 
	C113.752235,151.067886 118.124130,151.331940 122.825836,151.868134 
	C124.443550,152.718048 125.740570,153.806488 127.017754,153.783676 
	C132.065063,153.693558 137.106155,153.255081 142.563934,153.017059 
z"/>
<path fill="#016996" opacity="1.000000" stroke="none" 
	d="
M84.944901,29.900280 
	C85.737625,28.998892 86.530342,28.097504 87.988190,27.088902 
	C90.859787,28.245119 93.432884,29.133492 95.192696,30.853823 
	C98.382881,33.972435 101.088577,37.586670 103.662598,40.993393 
	C102.883408,40.988285 102.438141,40.983803 101.707169,40.749641 
	C99.135681,40.111671 96.849915,39.703377 93.681137,39.137352 
	C94.464066,40.904617 94.586914,41.829468 95.114182,42.267513 
	C98.670502,45.222012 102.488144,47.884880 105.861427,51.028236 
	C107.910728,52.937840 109.316460,55.538097 111.011292,57.828094 
	C110.257797,57.869614 109.504295,57.911129 108.280121,57.583035 
	C101.252563,51.460918 94.695686,45.708412 87.591530,39.475761 
	C92.660370,36.951515 90.184700,34.995979 87.529327,32.906719 
	C86.510239,32.104897 85.797325,30.913929 84.944901,29.900280 
z"/>
<path fill="#044E82" opacity="1.000000" stroke="none" 
	d="
M95.009064,57.871864 
	C90.985291,57.446896 86.969856,56.890862 82.935371,56.634468 
	C79.035927,56.386658 75.218735,55.780128 73.834328,51.622543 
	C72.440933,47.437939 71.795486,43.021305 75.760735,39.362522 
	C80.936943,43.376671 85.752884,47.121681 90.219658,51.244934 
	C92.182594,53.056908 93.434380,55.639282 95.009064,57.871864 
z"/>
<path fill="#03729D" opacity="1.000000" stroke="none" 
	d="
M103.996521,40.994015 
	C101.088577,37.586670 98.382881,33.972435 95.192696,30.853823 
	C93.432884,29.133492 90.859787,28.245119 88.265747,26.969305 
	C89.985420,24.617300 92.092682,22.277678 94.555588,19.896675 
	C96.014885,21.611938 96.800941,23.717661 98.279182,25.062597 
	C103.638649,29.938776 109.270386,34.514576 114.692703,39.323986 
	C115.541054,40.076435 115.835464,41.453407 115.809662,42.765984 
	C113.495667,42.669556 111.758026,42.348743 109.637062,42.004147 
	C107.501328,41.651577 105.748924,41.322796 103.996521,40.994015 
z"/>
<path fill="#01B3CA" opacity="1.000000" stroke="none" 
	d="
M198.897232,35.545723 
	C191.244690,30.223078 183.567200,24.574545 176.112503,18.645861 
	C173.770477,16.783260 172.027100,14.167931 170.429688,11.470203 
	C173.222794,11.093689 175.595947,11.144098 178.043076,11.519758 
	C185.022598,17.558096 191.928146,23.271183 198.833694,28.984272 
	C198.875244,31.026712 198.916794,33.069153 198.897232,35.545723 
z"/>
<path fill="#085386" opacity="1.000000" stroke="none" 
	d="
M52.399502,37.908775 
	C48.482803,34.546928 44.855843,31.026413 41.069778,27.189093 
	C44.383148,24.312155 47.855618,21.752018 51.653332,19.418804 
	C52.910740,21.477482 53.377769,24.057186 54.871418,24.986057 
	C58.029007,26.949692 57.916294,29.286312 57.049950,32.149933 
	C55.596378,34.016659 54.142807,35.883385 52.399502,37.908775 
z"/>
<path fill="#055C8D" opacity="1.000000" stroke="none" 
	d="
M207.416077,145.275146 
	C205.178802,148.110626 202.941528,150.946121 200.359375,153.565674 
	C199.674484,152.431107 199.591202,151.241028 198.953125,150.637680 
	C194.623398,146.543640 190.215973,142.528259 185.723785,138.613510 
	C185.074677,138.047836 183.836838,138.157715 182.871445,137.954987 
	C185.355362,136.041992 187.839279,134.128983 190.700592,132.387756 
	C195.373978,138.275757 199.669937,143.991989 207.416077,145.275146 
z"/>
<path fill="#093D77" opacity="1.000000" stroke="none" 
	d="
M171.048996,131.952377 
	C171.219849,131.960602 171.390686,131.968811 171.816757,132.004730 
	C168.506836,136.223083 162.619629,138.177917 158.289474,136.121338 
	C153.870773,134.022705 152.884583,129.888321 153.012268,125.368996 
	C153.054337,123.880089 153.054199,122.390007 153.456116,120.521225 
	C154.651535,120.677162 155.474228,121.197731 156.275146,121.749870 
	C161.202499,125.146744 166.124924,128.550751 171.048996,131.952377 
z"/>
<path fill="#046392" opacity="1.000000" stroke="none" 
	d="
M84.645325,30.050253 
	C85.797325,30.913929 86.510239,32.104897 87.529327,32.906719 
	C90.184700,34.995979 92.660370,36.951515 87.591530,39.475761 
	C94.695686,45.708412 101.252563,51.460918 107.906097,57.523445 
	C106.583130,57.656841 105.163513,57.480209 103.225143,56.902084 
	C100.724945,54.754772 98.790237,52.952236 96.753326,51.273735 
	C90.547646,46.160000 84.302551,41.094090 78.072800,36.009567 
	C80.163788,34.073120 82.254776,32.136673 84.645325,30.050253 
z"/>
<path fill="#035487" opacity="1.000000" stroke="none" 
	d="
M182.595856,137.984680 
	C183.836838,138.157715 185.074677,138.047836 185.723785,138.613510 
	C190.215973,142.528259 194.623398,146.543640 198.953125,150.637680 
	C199.591202,151.241028 199.674484,152.431107 200.056213,153.716980 
	C200.097946,154.084259 200.081100,154.062073 199.752548,154.102997 
	C198.725677,154.873123 198.027374,155.602310 197.329071,156.331497 
	C197.329071,156.331497 197.358429,156.379364 197.351318,156.405579 
	C191.759796,151.893860 186.127991,147.411209 180.666870,142.729462 
	C180.140945,142.278610 180.675278,140.590988 180.839355,139.142517 
	C181.414291,138.543152 181.867294,138.278763 182.595856,137.984680 
z"/>
<path fill="#01437A" opacity="1.000000" stroke="none" 
	d="
M171.045044,131.520065 
	C166.124924,128.550751 161.202499,125.146744 156.275146,121.749870 
	C155.474228,121.197731 154.651535,120.677162 153.513153,120.072220 
	C152.831070,117.596573 152.474747,115.190697 152.511017,112.391769 
	C154.613373,112.843170 156.439224,113.514198 158.010239,114.565910 
	C162.070831,117.284256 166.018921,120.170631 170.011932,122.989906 
	C170.354980,125.689194 170.698029,128.388474 171.045044,131.520065 
z"/>
<path fill="#093D77" opacity="1.000000" stroke="none" 
	d="
M125.349960,151.183655 
	C124.371002,149.028442 123.707245,146.955154 123.028496,144.521606 
	C131.783615,144.161377 140.553741,144.161377 149.323853,144.161377 
	C149.434174,144.955002 149.544495,145.748627 149.654816,146.542252 
	C142.056808,149.649765 134.374039,152.431259 125.349960,151.183655 
z"/>
<path fill="#0B5F8F" opacity="1.000000" stroke="none" 
	d="
M57.351456,31.996218 
	C57.916294,29.286312 58.029007,26.949692 54.871418,24.986057 
	C53.377769,24.057186 52.910740,21.477482 51.961777,19.255419 
	C55.044785,17.236137 58.144592,15.607165 61.625015,14.294065 
	C64.046661,17.089939 66.087692,19.569939 68.128723,22.049938 
	C64.636803,25.314125 61.144886,28.578314 57.351456,31.996218 
z"/>
<path fill="#03BBD0" opacity="1.000000" stroke="none" 
	d="
M137.019928,48.076286 
	C137.764221,48.064686 138.508530,48.053085 139.625153,48.052776 
	C141.487747,48.499565 142.978012,48.935055 144.789795,49.930328 
	C149.705811,54.314117 154.300323,58.138123 159.043518,62.255058 
	C159.475647,63.368809 159.759079,64.189629 160.033020,65.391815 
	C160.315842,67.489510 160.608170,69.205826 160.544662,70.922531 
	C158.719788,70.041527 157.254013,69.154587 155.780838,68.280128 
	C153.914185,67.172127 152.041504,66.074265 150.171432,64.972023 
	C150.038330,62.412395 150.513306,59.506950 146.321014,58.589478 
	C144.748871,56.792278 143.679443,55.359772 142.499100,54.025383 
	C140.713257,52.006481 138.850189,50.055904 137.019928,48.076286 
z"/>
<path fill="#0179A3" opacity="1.000000" stroke="none" 
	d="
M201.872238,119.861389 
	C202.227646,119.410088 202.583038,118.958794 203.154419,118.134674 
	C203.487152,117.457771 203.404556,117.210510 203.122574,117.020088 
	C204.182388,115.760674 205.242203,114.501259 206.946732,113.166000 
	C209.023300,114.187447 210.382751,115.399818 211.903168,116.356354 
	C214.490585,117.984169 217.179230,119.451050 219.825348,120.985558 
	C218.789413,123.880371 217.753494,126.775192 216.122620,129.704315 
	C210.975845,126.446205 206.424042,123.153793 201.872238,119.861389 
z"/>
<path fill="#03598B" opacity="1.000000" stroke="none" 
	d="
M77.911156,36.286674 
	C84.302551,41.094090 90.547646,46.160000 96.753326,51.273735 
	C98.790237,52.952236 100.724945,54.754772 102.872299,56.801102 
	C100.594025,57.376194 98.149849,57.650768 95.357361,57.898605 
	C93.434380,55.639282 92.182594,53.056908 90.219658,51.244934 
	C85.752884,47.121681 80.936943,43.376671 76.090363,39.177887 
	C76.528381,38.106483 77.138947,37.335129 77.911156,36.286674 
z"/>
<path fill="#046392" opacity="1.000000" stroke="none" 
	d="
M207.444000,145.237122 
	C199.669937,143.991989 195.373978,138.275757 191.011230,132.211685 
	C191.736069,130.957947 192.527634,130.052063 193.937988,129.099030 
	C199.762375,133.066910 204.967972,137.081924 210.173584,141.096954 
	C210.045151,141.396042 209.856445,141.650421 209.159790,142.151016 
	C208.509659,142.983551 208.307220,143.525146 208.104782,144.066757 
	C208.104782,144.066757 208.000610,144.004822 207.872528,144.166199 
	C207.523117,144.543457 207.418213,144.805847 207.429718,145.114731 
	C207.429718,145.114731 207.471909,145.199112 207.444000,145.237122 
z"/>
<path fill="#016996" opacity="1.000000" stroke="none" 
	d="
M210.453278,140.914520 
	C204.967972,137.081924 199.762375,133.066910 194.211121,128.966721 
	C195.663498,126.924812 197.461517,124.968063 199.773285,123.260696 
	C204.807053,127.337608 209.327103,131.165131 213.847137,134.992661 
	C212.809082,136.905807 211.771011,138.818939 210.453278,140.914520 
z"/>
<path fill="#044E82" opacity="1.000000" stroke="none" 
	d="
M170.011292,122.576706 
	C166.018921,120.170631 162.070831,117.284256 158.010239,114.565910 
	C156.439224,113.514198 154.613373,112.843170 152.535706,111.991409 
	C152.132706,111.527336 152.097595,111.070557 152.306931,109.995316 
	C153.035156,107.954567 153.518936,106.532272 153.996857,105.127182 
	C159.315506,108.630028 164.155624,111.817711 168.995728,115.005394 
	C169.334030,117.391434 169.672333,119.777466 170.011292,122.576706 
z"/>
<path fill="#057FA6" opacity="1.000000" stroke="none" 
	d="
M103.662598,40.993393 
	C105.748924,41.322796 107.501328,41.651577 109.645752,42.365578 
	C111.808701,44.797966 113.531784,46.889065 115.361610,48.882168 
	C118.216393,51.991669 121.143555,55.034718 124.040047,58.105927 
	C121.919128,58.147839 119.798203,58.189754 117.318863,57.694290 
	C116.022110,55.921196 115.190178,54.584095 114.126526,53.467793 
	C110.122871,49.266006 106.043747,45.136127 101.992882,40.979317 
	C102.438141,40.983803 102.883408,40.988285 103.662598,40.993393 
z"/>
<path fill="#0786AB" opacity="1.000000" stroke="none" 
	d="
M220.016754,120.650764 
	C217.179230,119.451050 214.490585,117.984169 211.903168,116.356354 
	C210.382751,115.399818 209.023300,114.187447 207.245270,113.028961 
	C208.023209,110.039314 209.147324,107.110863 210.631165,104.390358 
	C212.742065,109.806061 216.431107,112.510674 221.838211,112.996086 
	C221.294861,115.436050 220.751495,117.876007 220.016754,120.650764 
z"/>
<path fill="#03729D" opacity="1.000000" stroke="none" 
	d="
M214.001770,134.683838 
	C209.327103,131.165131 204.807053,127.337608 200.118393,123.211876 
	C200.347824,121.921898 200.745865,120.930122 201.508087,119.899864 
	C206.424042,123.153793 210.975845,126.446205 215.825439,129.906876 
	C215.467606,131.508423 214.812012,132.941711 214.001770,134.683838 
z"/>
<path fill="#01729E" opacity="1.000000" stroke="none" 
	d="
M101.707169,40.749641 
	C106.043747,45.136127 110.122871,49.266006 114.126526,53.467793 
	C115.190178,54.584095 116.022110,55.921196 116.977051,57.511230 
	C115.282578,57.893105 113.571495,57.920670 111.435852,57.888165 
	C109.316460,55.538097 107.910728,52.937840 105.861427,51.028236 
	C102.488144,47.884880 98.670502,45.222012 95.114182,42.267513 
	C94.586914,41.829468 94.464066,40.904617 93.681137,39.137352 
	C96.849915,39.703377 99.135681,40.111671 101.707169,40.749641 
z"/>
<path fill="#018BAF" opacity="1.000000" stroke="none" 
	d="
M124.422897,58.219078 
	C121.143555,55.034718 118.216393,51.991669 115.361610,48.882168 
	C113.531784,46.889065 111.808701,44.797966 110.029083,42.389366 
	C111.758026,42.348743 113.495667,42.669556 115.618057,42.994045 
	C116.486122,43.308346 116.969421,43.618969 117.793327,44.318687 
	C119.916794,46.571503 121.676598,48.457954 123.487816,50.293674 
	C126.312042,53.156105 129.171143,55.984119 132.015457,58.826721 
	C129.612228,58.661888 127.208992,58.497059 124.422897,58.219078 
z"/>
<path fill="#018BAF" opacity="1.000000" stroke="none" 
	d="
M221.902283,112.575394 
	C216.431107,112.510674 212.742065,109.806061 210.961670,104.225067 
	C211.381134,102.336868 211.829849,100.821915 212.913651,99.220673 
	C216.644943,100.751518 219.741135,102.368660 222.837341,103.985802 
	C222.547012,106.708771 222.256683,109.431732 221.902283,112.575394 
z"/>
<path fill="#01C7D8" opacity="1.000000" stroke="none" 
	d="
M198.900558,28.571625 
	C191.928146,23.271183 185.022598,17.558096 178.469299,11.445501 
	C180.540176,11.094811 182.258789,11.143628 184.050598,11.518370 
	C189.028412,15.893443 193.933029,19.942593 198.837646,23.991741 
	C198.880905,25.380819 198.924164,26.769897 198.900558,28.571625 
z"/>
<path fill="#01D2DF" opacity="1.000000" stroke="none" 
	d="
M198.907532,23.586594 
	C193.933029,19.942593 189.028412,15.893443 184.488617,11.446829 
	C186.623383,11.021736 188.393295,10.994110 190.163223,10.966485 
	C196.156967,12.833191 198.978561,16.988892 198.907532,23.586594 
z"/>
<path fill="#019CBA" opacity="1.000000" stroke="none" 
	d="
M222.897690,103.535385 
	C219.741135,102.368660 216.644943,100.751518 213.212463,99.046875 
	C213.250458,96.532257 213.624741,94.105125 214.436127,91.354927 
	C217.527115,92.017792 220.180969,93.003738 222.834839,93.989685 
	C222.875900,97.021446 222.916977,100.053200 222.897690,103.535385 
z"/>
<path fill="#046392" opacity="1.000000" stroke="none" 
	d="
M68.415298,21.892067 
	C66.087692,19.569939 64.046661,17.089939 61.983109,14.230948 
	C64.742279,12.657388 67.523979,11.462815 70.664871,10.538147 
	C72.021950,13.154872 73.019844,15.501694 74.017731,17.848515 
	C72.245781,19.143744 70.473831,20.438969 68.415298,21.892067 
z"/>
<path fill="#019EBB" opacity="1.000000" stroke="none" 
	d="
M150.091583,65.388000 
	C152.041504,66.074265 153.914185,67.172127 155.780838,68.280128 
	C157.254013,69.154587 158.719788,70.041527 160.581970,71.288528 
	C161.316925,72.769432 161.658768,73.884727 162.000610,75.000031 
	C162.004990,76.395592 162.009369,77.791145 161.673035,79.539978 
	C157.946365,77.923668 154.560394,75.954094 151.174423,73.984520 
	C150.786850,71.257675 150.399292,68.530823 150.091583,65.388000 
z"/>
<path fill="#FEFFFF" opacity="1.000000" stroke="none" 
	d="
M189.934296,10.584499 
	C188.393295,10.994110 186.623383,11.021736 184.415436,11.120903 
	C182.258789,11.143628 180.540176,11.094811 178.395325,11.120251 
	C175.595947,11.144098 173.222794,11.093689 170.407700,11.118427 
	C166.272842,11.140909 162.579941,11.088246 157.982574,11.045013 
	C154.046310,11.101369 151.014481,11.148295 147.545090,11.117983 
	C144.737076,11.089666 142.366623,11.138590 139.563141,11.114728 
	C137.085358,11.089156 135.040573,11.136370 132.571442,11.110274 
	C130.428177,11.086684 128.709290,11.136401 126.527420,11.113569 
	C119.059898,11.086848 112.055351,11.132677 105.050797,11.178507 
	C104.563530,11.177053 104.076256,11.175600 103.235870,11.071072 
	C103.555519,10.646256 104.228470,10.042867 104.901016,10.043326 
	C133.169159,10.062657 161.437271,10.135936 189.934296,10.584499 
z"/>
<path fill="#03598B" opacity="1.000000" stroke="none" 
	d="
M168.982452,114.634659 
	C164.155624,111.817711 159.315506,108.630028 153.996857,105.127182 
	C153.518936,106.532272 153.035156,107.954567 152.339569,109.652603 
	C152.101852,106.586365 152.075943,103.244377 152.112503,99.448380 
	C158.550034,103.229652 165.648422,106.669365 168.982452,114.634659 
z"/>
<path fill="#0C8EB1" opacity="1.000000" stroke="none" 
	d="
M151.099060,74.397797 
	C154.560394,75.954094 157.946365,77.923668 161.675873,79.958649 
	C162.340820,81.121323 162.662216,82.218590 163.002563,83.663284 
	C163.020660,84.459457 163.019791,84.908203 162.650116,85.669250 
	C159.141357,84.230446 156.001389,82.479340 152.717743,80.648117 
	C152.200958,82.074524 151.671951,83.534660 151.142944,84.994797 
	C151.103210,81.600220 151.063461,78.205650 151.099060,74.397797 
z"/>
<path fill="#03729D" opacity="1.000000" stroke="none" 
	d="
M74.358521,17.786457 
	C73.019844,15.501694 72.021950,13.154872 71.013153,10.448670 
	C74.409798,9.059670 77.817360,8.030052 81.627563,7.413221 
	C83.051048,9.278848 84.071884,10.731685 85.092712,12.184523 
	C81.628250,14.031147 78.163780,15.877772 74.358521,17.786457 
z"/>
<path fill="#03BBD0" opacity="1.000000" stroke="none" 
	d="
M216.178009,82.984070 
	C215.821930,77.110512 215.465851,71.236946 215.109787,65.363388 
	C215.848648,65.243431 216.587509,65.123466 217.326370,65.003510 
	C218.871613,70.415184 220.416840,75.826851 221.693802,81.858658 
	C219.676346,82.647209 217.927170,82.815636 216.178009,82.984070 
z"/>
<path fill="#019CBA" opacity="1.000000" stroke="none" 
	d="
M132.428558,58.891205 
	C129.171143,55.984119 126.312042,53.156105 123.487816,50.293674 
	C121.676598,48.457954 119.916794,46.571503 118.082512,44.371555 
	C120.459045,44.577770 122.887009,45.120216 125.714470,46.164688 
	C127.529160,48.183140 128.973267,49.673786 130.352982,51.221844 
	C132.594299,53.736668 134.793457,56.289082 137.010406,58.825623 
	C135.620819,58.868977 134.231247,58.912334 132.428558,58.891205 
z"/>
<path fill="#01A8C2" opacity="1.000000" stroke="none" 
	d="
M215.999817,83.327591 
	C217.927170,82.815636 219.676346,82.647209 221.644775,82.268066 
	C222.230667,85.737030 222.597305,89.416718 222.899384,93.543045 
	C220.180969,93.003738 217.527115,92.017792 214.515961,91.010544 
	C214.712997,88.549866 215.267319,86.110489 215.999817,83.327591 
z"/>
<path fill="#018BAF" opacity="1.000000" stroke="none" 
	d="
M182.847824,32.989296 
	C187.956100,36.277252 193.064377,39.565208 198.502777,42.918175 
	C198.880524,43.439957 198.928131,43.896729 198.684387,44.864906 
	C198.201462,45.924984 198.009888,46.473660 197.486115,46.951416 
	C195.389359,45.708153 193.648560,44.498001 191.854858,43.372089 
	C188.996628,41.577976 186.103180,39.839951 183.166351,37.657482 
	C183.021332,35.820938 182.934570,34.405121 182.847824,32.989296 
z"/>
<path fill="#0179A3" opacity="1.000000" stroke="none" 
	d="
M151.108795,85.245270 
	C151.671951,83.534660 152.200958,82.074524 152.717743,80.648117 
	C156.001389,82.479340 159.141357,84.230446 162.653091,86.005905 
	C163.679214,88.009850 164.333588,89.989433 164.987946,91.969009 
	C164.602005,92.371269 164.216080,92.773521 163.830139,93.175774 
	C161.686920,91.749397 159.585571,90.254120 157.387283,88.918388 
	C155.622330,87.845978 153.739868,86.966957 151.540497,85.997040 
	C151.139175,85.826553 151.106918,85.661148 151.108795,85.245270 
z"/>
<path fill="#057FA6" opacity="1.000000" stroke="none" 
	d="
M85.449799,12.099355 
	C84.071884,10.731685 83.051048,9.278848 82.015564,7.476915 
	C86.697052,5.421294 91.307976,2.898982 98.137276,5.929680 
	C93.220886,8.355704 89.513885,10.184946 85.449799,12.099355 
z"/>
<path fill="#F8FAFB" opacity="1.000000" stroke="none" 
	d="
M50.834381,87.270241 
	C49.463722,80.216324 48.135620,72.802872 46.136070,65.183578 
	C45.270550,64.972603 45.076466,64.967461 44.882381,64.962318 
	C45.392990,63.304298 45.903599,61.646282 46.414207,59.988262 
	C46.877907,59.804394 47.341606,59.620522 47.805309,59.436653 
	C48.537209,60.826084 49.782063,62.168613 49.914116,63.612892 
	C50.559299,70.669289 50.924400,77.751862 51.334061,84.828323 
	C51.373600,85.511345 51.038254,86.216057 50.834381,87.270241 
z"/>
<path fill="#01A8C2" opacity="1.000000" stroke="none" 
	d="
M137.423309,58.894157 
	C134.793457,56.289082 132.594299,53.736668 130.352982,51.221844 
	C128.973267,49.673786 127.529160,48.183140 126.052490,46.325241 
	C126.740883,45.982738 127.490761,45.981716 128.614990,45.967850 
	C129.805679,46.228859 130.622025,46.502708 131.786560,47.250130 
	C133.420456,49.146980 134.716721,50.560890 135.989410,51.995697 
	C138.004318,54.267269 140.003464,56.552826 142.009277,58.832466 
	C140.618256,58.875874 139.227249,58.919285 137.423309,58.894157 
z"/>
<path fill="#EAEFF4" opacity="1.000000" stroke="none" 
	d="
M44.541077,65.105072 
	C45.076466,64.967461 45.270550,64.972603 45.755119,64.998322 
	C44.489082,69.838898 42.999756,74.682442 41.325047,79.461006 
	C40.943943,80.548431 39.921227,81.410988 39.193825,82.377037 
	C38.769955,82.154564 38.346085,81.932083 37.922215,81.709602 
	C38.095638,78.291168 38.269058,74.872734 38.400543,71.033432 
	C38.674683,70.708771 38.990765,70.804970 39.513783,70.744995 
	C40.014389,71.418678 40.308056,72.248520 40.861710,73.813042 
	C42.182816,70.423180 43.191292,67.835503 44.541077,65.105072 
z"/>
<path fill="#01B3CA" opacity="1.000000" stroke="none" 
	d="
M142.405685,58.900505 
	C140.003464,56.552826 138.004318,54.267269 135.989410,51.995697 
	C134.716721,50.560890 133.420456,49.146980 132.079346,47.389790 
	C133.444702,47.369678 134.865479,47.683472 136.653091,48.036777 
	C138.850189,50.055904 140.713257,52.006481 142.499100,54.025383 
	C143.679443,55.359772 144.748871,56.792278 145.937302,58.508038 
	C144.938461,58.879658 143.870285,58.924103 142.405685,58.900505 
z"/>
<path fill="#EAEFF4" opacity="1.000000" stroke="none" 
	d="
M4.585695,79.213867 
	C4.543489,86.399765 4.096245,93.673843 3.964627,101.253647 
	C3.992093,95.382668 3.653738,89.207558 3.458205,83.027924 
	C3.419188,81.794815 3.925697,80.544456 4.585695,79.213867 
z"/>
<path fill="#648BAC" opacity="1.000000" stroke="none" 
	d="
M197.988281,105.094833 
	C197.968643,104.627823 197.948990,104.160820 197.840393,103.078430 
	C197.530594,101.969063 197.309738,101.475067 197.371918,100.678848 
	C197.713715,93.589951 197.772446,86.803276 197.884903,79.580940 
	C197.899033,77.103615 197.859421,75.061951 197.899673,72.754913 
	C198.037994,72.314293 198.096466,72.139046 198.323578,71.966148 
	C198.492249,71.968506 198.829575,71.973885 198.829575,71.973885 
	C198.883606,82.689255 198.937637,93.404617 198.711899,104.596664 
	C198.432144,105.073341 197.988297,105.094833 197.988281,105.094833 
z"/>
<path fill="#65A6C0" opacity="1.000000" stroke="none" 
	d="
M198.887878,71.510246 
	C198.829575,71.973885 198.492249,71.968506 198.278519,71.534271 
	C197.995834,69.068481 197.926880,67.036926 197.914444,64.579475 
	C197.929993,62.437195 197.888992,60.720810 197.900543,58.578918 
	C197.913498,56.441181 197.873932,54.728951 197.883209,52.590229 
	C197.894150,50.449936 197.856232,48.736134 197.818314,47.022331 
	C198.009888,46.473660 198.201462,45.924984 198.631500,45.206970 
	C198.895386,53.707294 198.920792,62.376949 198.887878,71.510246 
z"/>
<path fill="#044E82" opacity="1.000000" stroke="none" 
	d="
M197.631760,156.292938 
	C198.027374,155.602310 198.725677,154.873123 199.754578,154.117004 
	C199.368271,154.811508 198.651367,155.532944 197.631760,156.292938 
z"/>
<path fill="#093D77" opacity="1.000000" stroke="none" 
	d="
M111.657906,140.960052 
	C111.177170,141.192200 110.325150,141.353912 109.258896,141.317596 
	C109.791977,141.042923 110.539299,140.966278 111.657906,140.960052 
z"/>
<path fill="#055C8D" opacity="1.000000" stroke="none" 
	d="
M208.360580,143.913116 
	C208.307220,143.525146 208.509659,142.983551 208.952606,142.270569 
	C209.000854,142.652634 208.808609,143.206055 208.360580,143.913116 
z"/>
<path fill="#055C8D" opacity="1.000000" stroke="none" 
	d="
M207.668640,145.068192 
	C207.418213,144.805847 207.523117,144.543457 207.923141,144.200500 
	C208.136597,144.409912 208.071838,144.725998 207.668640,145.068192 
z"/>
<path fill="#01729E" opacity="1.000000" stroke="none" 
	d="
M198.007477,105.354172 
	C197.988297,105.094833 198.432144,105.073341 198.654022,105.065735 
	C198.973434,105.432648 198.858505,105.723145 198.302216,106.030556 
	C198.057770,105.958832 198.042206,105.786163 198.007477,105.354172 
z"/>
<path fill="#03729D" opacity="1.000000" stroke="none" 
	d="
M203.093048,117.261589 
	C203.404556,117.210510 203.487152,117.457771 203.271317,117.869621 
	C203.172256,117.977379 203.063507,117.503090 203.093048,117.261589 
z"/>
<path fill="#0195B5" opacity="1.000000" stroke="none" 
	d="
M152.013611,50.080353 
	C151.044022,48.261429 150.483383,45.981873 149.038101,44.698776 
	C140.049515,36.718861 130.793991,29.039780 121.796661,21.069412 
	C119.885025,19.375967 118.674835,16.890697 117.461029,14.466576 
	C121.191132,15.091228 124.601669,16.019539 128.065506,17.292202 
	C129.098679,18.943840 129.896362,20.454906 131.090561,21.522451 
	C135.774200,25.709372 140.655167,29.675858 145.331558,33.870571 
	C159.125046,46.243298 172.832062,58.712543 186.655655,71.051323 
	C187.787292,72.061417 189.546265,72.368706 191.182404,73.326180 
	C191.953293,75.773109 192.555511,77.896431 193.137238,80.347626 
	C193.120560,81.113594 193.124374,81.551682 192.770935,81.941254 
	C190.737320,80.888489 188.857635,80.114082 187.418839,78.841286 
	C180.128433,72.392067 173.046188,65.704849 165.678223,59.347637 
	C163.525543,57.490273 160.673386,56.443600 158.082550,54.655251 
	C156.020035,52.883553 154.016830,51.481953 152.013611,50.080353 
z"/>
<path fill="#01D2DF" opacity="1.000000" stroke="none" 
	d="
M151.576080,50.065147 
	C154.016830,51.481953 156.020035,52.883553 158.060303,55.043480 
	C158.363174,57.855247 158.628998,59.908688 158.894836,61.962128 
	C154.300323,58.138123 149.705811,54.314117 145.072601,50.122978 
	C147.068787,49.853882 149.103668,49.951916 151.576080,50.065147 
z"/>
<path fill="#035487" opacity="1.000000" stroke="none" 
	d="
M128.012207,16.947849 
	C124.601669,16.019539 121.191132,15.091228 117.399277,14.129286 
	C113.230507,13.261410 109.443047,12.427164 105.353195,11.385712 
	C112.055351,11.132677 119.059898,11.086848 126.598907,11.441740 
	C127.748466,13.503168 128.363571,15.163877 128.737915,16.862465 
	C128.497147,16.900345 128.012207,16.947847 128.012207,16.947849 
z"/>
<path fill="#0181A8" opacity="1.000000" stroke="none" 
	d="
M147.982651,11.195223 
	C151.014481,11.148295 154.046310,11.101369 157.526230,11.122898 
	C161.870789,15.059591 165.779602,18.915518 169.655991,22.803782 
	C170.779221,23.930460 171.809448,25.149870 172.566910,26.653063 
	C171.500336,26.931957 170.749176,26.884560 169.711639,26.622522 
	C167.292999,25.984983 165.160751,25.562082 162.676880,25.093964 
	C161.212448,24.682579 160.099625,24.316410 158.927322,23.613766 
	C157.590134,21.858562 156.312653,20.439617 155.034637,19.021158 
	C152.684158,16.412359 150.333328,13.803849 147.982651,11.195223 
z"/>
<path fill="#01C7D8" opacity="1.000000" stroke="none" 
	d="
M169.998001,26.837162 
	C170.749176,26.884560 171.500336,26.931957 172.627716,26.993677 
	C174.879379,27.571671 176.916046,27.848349 178.582291,28.784395 
	C180.075775,29.623386 181.161530,31.188145 182.637497,32.711006 
	C182.934570,34.405121 183.021332,35.820938 183.104919,37.641548 
	C183.101746,38.046337 182.990356,37.994236 182.628632,37.980812 
	C178.177261,34.257309 174.087631,30.547237 169.998001,26.837162 
z"/>
<path fill="#0181A8" opacity="1.000000" stroke="none" 
	d="
M197.088867,100.981071 
	C197.309738,101.475067 197.530594,101.969063 197.803146,102.729858 
	C194.245300,100.506340 190.457642,98.235725 187.061630,95.482079 
	C178.839310,88.815002 170.799515,81.922791 162.343384,75.060677 
	C161.658768,73.884727 161.316925,72.769432 160.937775,71.288139 
	C160.608170,69.205826 160.315842,67.489510 160.391785,65.403954 
	C161.922974,65.597984 163.275986,65.941872 164.219101,66.758904 
	C172.465942,73.903122 180.585907,81.194603 188.876862,88.286499 
	C190.692917,89.839928 193.040680,90.771744 195.349045,92.296844 
	C196.065948,95.396255 196.577408,98.188667 197.088867,100.981071 
z"/>
<path fill="#018BAF" opacity="1.000000" stroke="none" 
	d="
M195.143585,91.989830 
	C193.040680,90.771744 190.692917,89.839928 188.876862,88.286499 
	C180.585907,81.194603 172.465942,73.903122 164.219101,66.758904 
	C163.275986,65.941872 161.922974,65.597984 160.401276,65.022583 
	C159.759079,64.189629 159.475647,63.368809 159.043518,62.255058 
	C158.628998,59.908688 158.363174,57.855247 158.119598,55.413574 
	C160.673386,56.443600 163.525543,57.490273 165.678223,59.347637 
	C173.046188,65.704849 180.128433,72.392067 187.418839,78.841286 
	C188.857635,80.114082 190.737320,80.888489 192.989471,82.239799 
	C194.091370,85.721176 194.617477,88.855507 195.143585,91.989830 
z"/>
<path fill="#01729E" opacity="1.000000" stroke="none" 
	d="
M147.545090,11.117983 
	C150.333328,13.803849 152.684158,16.412359 155.034637,19.021158 
	C156.312653,20.439617 157.590134,21.858562 158.532730,23.572830 
	C155.799377,23.497587 153.401138,23.126804 150.781662,22.572008 
	C149.703979,21.961790 148.847549,21.535587 147.917786,20.777561 
	C145.228348,17.359665 142.612259,14.273590 139.996170,11.187514 
	C142.366623,11.138590 144.737076,11.089666 147.545090,11.117983 
z"/>
<path fill="#016996" opacity="1.000000" stroke="none" 
	d="
M139.563141,11.114729 
	C142.612259,14.273590 145.228348,17.359665 147.506897,20.750896 
	C144.462326,20.640087 141.755295,20.224117 139.045380,19.596649 
	C139.042496,19.385153 139.006775,18.963633 138.943542,18.627964 
	C136.918808,15.922726 134.957306,13.553155 132.995804,11.183583 
	C135.040573,11.136370 137.085358,11.089156 139.563141,11.114729 
z"/>
<path fill="#035F8F" opacity="1.000000" stroke="none" 
	d="
M132.571442,11.110275 
	C134.957306,13.553155 136.918808,15.922726 138.536362,18.633308 
	C135.121170,18.257742 132.049911,17.541164 128.978668,16.824585 
	C128.363571,15.163877 127.748466,13.503168 127.061874,11.514290 
	C128.709290,11.136401 130.428177,11.086684 132.571442,11.110275 
z"/>
<path fill="#0181A8" opacity="1.000000" stroke="none" 
	d="
M197.486115,46.951416 
	C197.856232,48.736134 197.894150,50.449936 197.557159,52.515923 
	C193.147400,50.242325 189.112564,47.616539 184.863007,44.969551 
	C184.648315,44.948345 184.216888,44.939838 184.169067,44.545723 
	C183.744293,42.099152 183.367325,40.046696 182.990356,37.994236 
	C182.990356,37.994236 183.101746,38.046337 183.163177,38.062271 
	C186.103180,39.839951 188.996628,41.577976 191.854858,43.372089 
	C193.648560,44.498001 195.389359,45.708153 197.486115,46.951416 
z"/>
<path fill="#03598B" opacity="1.000000" stroke="none" 
	d="
M197.857910,65.005371 
	C197.926880,67.036926 197.995834,69.068481 198.109863,71.531914 
	C198.096466,72.139046 198.037994,72.314293 197.568787,72.676514 
	C194.838409,71.920532 192.518753,70.977592 190.154449,69.639557 
	C189.699020,67.487656 189.288254,65.730850 188.914215,63.603840 
	C188.929962,62.489155 188.909012,61.744671 189.246765,61.051544 
	C192.356308,62.403728 195.107117,63.704548 197.857910,65.005371 
z"/>
<path fill="#03457C" opacity="1.000000" stroke="none" 
	d="
M195.349045,92.296844 
	C194.617477,88.855507 194.091370,85.721176 193.346710,82.288315 
	C193.124374,81.551682 193.120560,81.113594 193.524506,80.342163 
	C195.231888,80.011414 196.531540,80.014000 197.831177,80.016594 
	C197.772446,86.803276 197.713715,93.589951 197.371918,100.678848 
	C196.577408,98.188667 196.065948,95.396255 195.349045,92.296844 
z"/>
<path fill="#044E82" opacity="1.000000" stroke="none" 
	d="
M197.884903,79.580940 
	C196.531540,80.014000 195.231888,80.011414 193.544983,80.014282 
	C192.555511,77.896431 191.953293,75.773109 191.162628,73.014725 
	C190.715836,71.597984 190.457474,70.816315 190.199112,70.034653 
	C192.518753,70.977592 194.838409,71.920532 197.488922,72.941879 
	C197.859421,75.061951 197.899033,77.103615 197.884903,79.580940 
z"/>
<path fill="#016996" opacity="1.000000" stroke="none" 
	d="
M197.914459,64.579475 
	C195.107117,63.704548 192.356308,62.403728 189.030670,60.768913 
	C187.918915,58.278988 187.381989,56.123051 186.861053,53.641529 
	C186.870468,52.881310 186.863907,52.446674 187.208725,52.062759 
	C190.989410,54.410461 194.418716,56.707443 197.848007,59.004425 
	C197.888992,60.720810 197.929993,62.437195 197.914459,64.579475 
z"/>
<path fill="#01729E" opacity="1.000000" stroke="none" 
	d="
M197.900543,58.578918 
	C194.418716,56.707443 190.989410,54.410461 186.990479,51.783997 
	C185.973129,49.299923 185.525421,47.145340 185.077713,44.990753 
	C189.112564,47.616539 193.147400,50.242325 197.508301,52.942413 
	C197.873932,54.728951 197.913498,56.441181 197.900543,58.578918 
z"/>
<path fill="#019EBB" opacity="1.000000" stroke="none" 
	d="
M190.154449,69.639557 
	C190.457474,70.816315 190.715836,71.597984 190.993958,72.691101 
	C189.546265,72.368706 187.787292,72.061417 186.655655,71.051323 
	C172.832062,58.712543 159.125046,46.243298 145.331558,33.870571 
	C140.655167,29.675858 135.774200,25.709372 131.090561,21.522451 
	C129.896362,20.454906 129.098679,18.943840 128.065506,17.292200 
	C128.012207,16.947847 128.497147,16.900345 128.737915,16.862465 
	C132.049911,17.541164 135.121170,18.257742 138.599594,18.968977 
	C139.006775,18.963633 139.042496,19.385153 139.082840,19.958458 
	C139.851761,21.607449 140.395340,22.891718 141.337158,23.726938 
	C152.213501,33.372345 163.075012,43.037285 174.105972,52.504177 
	C178.830933,56.559193 183.941910,60.164433 188.877487,63.974037 
	C189.288254,65.730850 189.699020,67.487656 190.154449,69.639557 
z"/>
<path fill="#01B3CA" opacity="1.000000" stroke="none" 
	d="
M184.863007,44.969551 
	C185.525421,47.145340 185.973129,49.299923 186.639099,51.733276 
	C186.863907,52.446674 186.870468,52.881310 186.513657,53.633766 
	C185.003983,53.366589 183.697342,52.972481 182.737076,52.165966 
	C175.911972,46.433590 169.015854,40.772449 162.433060,34.769779 
	C158.358994,31.054733 154.795578,26.779686 151.002914,22.756021 
	C153.401138,23.126804 155.799377,23.497587 158.592194,23.909306 
	C160.099625,24.316410 161.212448,24.682579 162.685272,25.442719 
	C168.309692,34.191288 175.884842,39.985001 184.216888,44.939838 
	C184.216888,44.939838 184.648315,44.948345 184.863007,44.969551 
z"/>
<path fill="#03BBD0" opacity="1.000000" stroke="none" 
	d="
M184.169067,44.545723 
	C175.884842,39.985001 168.309692,34.191288 163.036865,25.487934 
	C165.160751,25.562082 167.292999,25.984983 169.711639,26.622524 
	C174.087631,30.547237 178.177261,34.257309 182.628632,37.980812 
	C183.367325,40.046696 183.744293,42.099152 184.169067,44.545723 
z"/>
<path fill="#01A8C2" opacity="1.000000" stroke="none" 
	d="
M150.781662,22.572006 
	C154.795578,26.779686 158.358994,31.054733 162.433060,34.769779 
	C169.015854,40.772449 175.911972,46.433590 182.737076,52.165966 
	C183.697342,52.972481 185.003983,53.366589 186.497681,53.959351 
	C187.381989,56.123051 187.918915,58.278988 188.671951,60.717552 
	C188.909012,61.744671 188.929962,62.489155 188.914215,63.603840 
	C183.941910,60.164433 178.830933,56.559193 174.105972,52.504177 
	C163.075012,43.037285 152.213501,33.372345 141.337158,23.726938 
	C140.395340,22.891718 139.851761,21.607449 139.085724,20.169956 
	C141.755295,20.224117 144.462326,20.640087 147.580246,21.082722 
	C148.847549,21.535587 149.703979,21.961790 150.781662,22.572006 
z"/>
</svg>