<svg id="Layer_1" data-name="Layer 1" xmlns="http://www.w3.org/2000/svg" viewBox="0 0 168 143.25"><defs><style>.cls-1{fill:#fcfdfd;}.cls-2{fill:#023470;}.cls-3{fill:#043e77;}.cls-4{fill:#033d76;}.cls-5{fill:#018aae;}.cls-6{fill:#02457b;}.cls-7{fill:#01719c;}.cls-8{fill:#016995;}.cls-9{fill:#0179a2;}.cls-10{fill:#0180a7;}.cls-11{fill:#026693;}.cls-12{fill:#015e8e;}.cls-13{fill:#024d81;}.cls-14{fill:#025b8c;}.cls-15{fill:#0199b8;}.cls-16{fill:#025387;}.cls-17{fill:#075b8c;}.cls-18{fill:#047aa2;}.cls-19{fill:#01a7c1;}.cls-20{fill:#05bbd0;}.cls-21{fill:#01b6cc;}.cls-22{fill:#067fa6;}.cls-23{fill:#073c76;}.cls-24{fill:#0585aa;}.cls-25{fill:#0192b3;}.cls-26{fill:#01d2de;}.cls-27{fill:#01c6d7;}.cls-28{fill:#019dba;}.cls-29{fill:#01b1c8;}.cls-30{fill:#0197b6;}</style></defs><path class="cls-1" d="M1044,611.25H876V468h168Zm-20.22-84V492l-.06-3.74-.06-3c.3-7.32-2.48-9.89-10.42-9.6H954.05L951.78,477l-3.09,3-2.37,2.59-5.13,4.9-4.42,4.58-5.22,5.21L930.1,501c-.16,5.95,3.14,8.6,10.41,8.33l6,.5,6.75.07,4.5.06,5.21.25,6,.4,4.52,0,4.49.05,3,.09,3,.13,4.23.9c.13,1.52.24,2.86.36,4.2l0,6.75c0,1.5,0,3,0,4.5l.61,4.5.09,3c0,1,0,2,0,3,0,1.25,0,2.5,0,3.75l.08,3.76c.16,2,.33,4,.49,6s.09,4,.14,6c0,1.37-.1,2.74-.08,4.11.07,3.62,1.85,6.42,5.1,7.59s6.23.1,8.46-2.68l.73-.73,8.27-8.17,4.47-4.57,4-3.7,2.81-4.61,0-1.42Q1023.79,535.15,1023.78,527.25Zm-79.51-53.94,8.65-2.58-.15-.78-8.53,1.18-10.56,2.68-6.69,2.4-7.54,2.91-6.7,3.88-7.55,5.13-7.44,6.9-8.45,10.08c-5.13,7.61-8.83,15.75-10.07,25-2.32,17.24,1.38,33,11.78,46.91a79,79,0,0,0,30,24,90.64,90.64,0,0,0,39.42,8.44c12.47,0,24.79-1.84,36.27-7.32l12.75-6.63,7.59-5.82,4.47-3.78,3.71-4.1.62-.54.54-.61,3.34-4.07.58-.56.41-.68,3.57-6.07,2.22-4.42,3-7.59c.45-1.76.91-3.51,1.36-5.26l.78-7.5.13-6.77q-.4-4.49-.82-9c-.49-4.23-1.11-8.42-3.6-12V528l-.51,6.57c-.58,2.31-1.16,4.61-1.73,6.92q-.84,2.22-1.66,4.44l-2.4,5.22-4.23,6.09-2.39,2.88-5.19,5.37-5.37,4.26-3.65,2.48-7.59,4.28-8.16,2.71-15,3.61-3.77.09a.55.55,0,0,0-.7.07l-18.34-.72,0-1.24H966l1.28-.3,1.7-.21a54.63,54.63,0,0,0,17.68-3.76l-.09-1.34H968.24c-15.41-2.18-29.26-7.87-40.58-18.76s-16.89-24.58-17.36-40.38l-1.13-.06q-2.31,9.74-4.61,19.46l-.6.07V519.47q2.24-7.69,4.49-15.39l5.12-8.31,4.41-5.54,5.37-4.74,6.69-5.2,5.28-3.13Z" transform="translate(-876 -468)"/><path class="cls-2" d="M996.75,602.13c-11.48,5.48-23.8,7.3-36.27,7.32A90.64,90.64,0,0,1,921.06,601a79,79,0,0,1-30-24c-10.4-13.88-14.1-29.67-11.78-46.91,1.24-9.22,4.94-17.36,10.07-25,1.35,1.56,2.57,3.24,4.05,4.65,3.47,3.31,7.06,6.48,10.6,9.71v16.29l.6-.07q2.31-9.74,4.61-19.46l1.13.06c.47,15.8,6,29.45,17.36,40.38s25.17,16.58,40.58,18.76l.76,5.1-1.7.21L966,581h-9.28l0,1.24L975,583l.7-.07,3.77-.09c-.59,4.44,3.37,5.65,5.71,8C989,594.64,992.9,598.37,996.75,602.13Z" transform="translate(-876 -468)"/><path class="cls-3" d="M996.75,602.13c-3.85-3.76-7.73-7.49-11.54-11.3-2.34-2.34-6.3-3.55-5.71-8l15-3.61c1.09,1.9,1.85,4.13,3.34,5.62,3.71,3.73,7.75,7.12,11.66,10.65Z" transform="translate(-876 -468)"/><path class="cls-4" d="M904,519.47c-3.54-3.23-7.13-6.4-10.6-9.71-1.48-1.41-2.7-3.09-4.05-4.65L897.76,495q5.36,4.52,10.69,9.05Z" transform="translate(-876 -468)"/><path class="cls-5" d="M951.78,477l2.27-1.37,7.47,2.05a8.66,8.66,0,0,0,1.37,2.51c5.51,5,11.19,9.78,16.61,14.86,3.2,3,6,6.43,9,9.67l-4.48-.1-4.52-1.4a17.09,17.09,0,0,0-2.24-3.28C968.81,492.26,960.28,484.64,951.78,477Z" transform="translate(-876 -468)"/><path class="cls-6" d="M1009.5,595.5c-3.91-3.53-8-6.92-11.66-10.65-1.49-1.49-2.25-3.72-3.34-5.62l8.16-2.71,14.43,13.16Z" transform="translate(-876 -468)"/><path class="cls-7" d="M941.19,487.47l5.13-4.89a10.49,10.49,0,0,0,1.56,2.84c3.51,3.29,7.2,6.38,10.7,9.67a42.27,42.27,0,0,1,3.67,4.41l-4.49-.74L952,498.1l-.43,1.14c1.82,1.59,3.7,3.11,5.43,4.78,2,2,4,4.12,6,6.19l-5.21-.25a13.07,13.07,0,0,0-2-3c-2.85-2.39-5.89-4.56-8.77-6.91a27.55,27.55,0,0,1-2.82-3.5l6.55.31.53-1Z" transform="translate(-876 -468)"/><path class="cls-7" d="M989.33,534.75l-.09-3L999,538l-.77-5.49,0-1.49c1.82.94,3.89,1.58,5.41,2.87,5.89,5,11.6,10.14,17.37,15.23l-4,3.7c-3-2.91-5.95-5.95-9.13-8.68-2.11-1.81-5.36-5-6.79-4.42-4.43,1.84-5.84-1.45-8.3-3.21A23.55,23.55,0,0,0,989.33,534.75Z" transform="translate(-876 -468)"/><path class="cls-8" d="M989.33,534.75a23.55,23.55,0,0,1,3.48,1.74c2.46,1.76,3.87,5,8.3,3.21,1.43-.59,4.68,2.61,6.79,4.42,3.18,2.73,6.1,5.77,9.13,8.68l-4.47,4.57c-3-2.93-5.91-6-9.14-8.74-4.55-3.79-9.37-7.27-14.07-10.88Z" transform="translate(-876 -468)"/><path class="cls-9" d="M1021,549.1c-5.77-5.09-11.48-10.27-17.37-15.23-1.52-1.29-3.59-1.93-5.41-2.87-.49-1.25-1-2.5-1.48-3.75V523.5a11.88,11.88,0,0,1,3.24,1.42c4.83,4.19,9.47,8.62,14.37,12.74,3,2.49,6.3,4.56,9.46,6.83Z" transform="translate(-876 -468)"/><path class="cls-10" d="M951.78,477c8.5,7.63,17,15.25,25.48,22.94a17.09,17.09,0,0,1,2.24,3.28l-1.49.06-3.75-.77-3-.8c-.73-1.35-1.16-3-2.24-4-6.69-6-13.52-11.85-20.31-17.75Z" transform="translate(-876 -468)"/><path class="cls-10" d="M1023.82,544.49c-3.16-2.27-6.49-4.34-9.46-6.83-4.9-4.12-9.54-8.55-14.37-12.74a11.88,11.88,0,0,0-3.24-1.42c-.27-1-.53-2-.8-3-.22-1.24-.44-2.47-.67-3.7a8.15,8.15,0,0,1,2.69.93c4.51,3.86,8.82,7.95,13.39,11.72,3.27,2.71,6.85,5,10.29,7.55l2.15,6.11Z" transform="translate(-876 -468)"/><path class="cls-11" d="M941.19,487.47l10,8.44-.53,1-6.55-.31a27.55,27.55,0,0,0,2.82,3.5c2.88,2.35,5.92,4.52,8.77,6.91a13.07,13.07,0,0,1,2,3l-4.5-.06c-1.57-1.5-3.17-3-4.69-4.51-4.17-4.23-11.07-6.07-11.79-13.34Z" transform="translate(-876 -468)"/><path class="cls-12" d="M989.35,537.75c4.7,3.61,9.52,7.09,14.07,10.88,3.23,2.69,6.11,5.81,9.14,8.74l-8.27,8.17c-.52-2-1-4-1.54-6l-.75-6c-.3-1-.27-2.51-1-3.08-3.79-3.09-7.76-6-11.67-8.92C989.36,540.25,989.36,539,989.35,537.75Z" transform="translate(-876 -468)"/><path class="cls-9" d="M948.69,480c6.79,5.9,13.62,11.74,20.31,17.75,1.08,1,1.51,2.64,2.24,4l-1.5,0-6-1.48-1.51-.76a42.27,42.27,0,0,0-3.67-4.41c-3.5-3.29-7.19-6.38-10.7-9.67a10.49,10.49,0,0,1-1.56-2.84Z" transform="translate(-876 -468)"/><path class="cls-13" d="M1017.09,589.68l-14.43-13.16,7.59-4.28c1.92,2.46,3.78,5,5.77,7.38,1.78,2.15,3.69,4.19,5.54,6.28Z" transform="translate(-876 -468)"/><path class="cls-6" d="M908.45,504.08q-5.34-4.53-10.69-9.05l7.44-6.9a14.21,14.21,0,0,0,8.37,7.64Z" transform="translate(-876 -468)"/><path class="cls-14" d="M1029.77,576.58q-1.66,2-3.34,4.07l-12.53-10.89,5.37-4.26,11.49,9.84-.41.68Z" transform="translate(-876 -468)"/><path class="cls-15" d="M995.24,475.65h5.25a21.45,21.45,0,0,0,2.86,3.75q6.79,5.73,13.85,11.16c2.08,1.63,4.38,3,6.58,4.44v3.75c-1.4-.76-2.82-1.49-4.18-2.31-2.41-1.45-4.78-2.95-7.17-4.44-.41-2.52-2.47-3.1-4.44-3.79-1.18-1.21-2.32-2.45-3.53-3.63Q999.87,480.1,995.24,475.65Z" transform="translate(-876 -468)"/><path class="cls-16" d="M1013.9,569.76l12.53,10.89-.54.61-.62.54-3.71,4.1c-1.85-2.09-3.76-4.13-5.54-6.28-2-2.41-3.85-4.92-5.77-7.38Z" transform="translate(-876 -468)"/><path class="cls-13" d="M913.57,495.77a14.21,14.21,0,0,1-8.37-7.64l7.55-5.13a31.86,31.86,0,0,0,1.85,3.16c1,1.41,2.25,2.72,3.38,4.07Z" transform="translate(-876 -468)"/><path class="cls-11" d="M1030.76,575.34l-11.49-9.84,5.19-5.37,9.87,9.14Z" transform="translate(-876 -468)"/><path class="cls-17" d="M936.77,492.05c.72,7.27,7.62,9.11,11.79,13.34,1.52,1.55,3.12,3,4.69,4.51l-6.75-.07c-.62-1.12-1-2.53-1.91-3.32-3.25-2.81-6.65-5.46-10.08-8.06a12.14,12.14,0,0,0-3-1.19Z" transform="translate(-876 -468)"/><path class="cls-4" d="M1003.56,566.27c-2.23,2.78-5.29,3.82-8.46,2.68s-5-4-5.1-7.59c0-1.37,0-2.74.08-4.11a23.84,23.84,0,0,1,3.47,1.72C996.93,561.34,1000.23,563.83,1003.56,566.27Z" transform="translate(-876 -468)"/><path class="cls-6" d="M1003.56,566.27c-3.33-2.44-6.63-4.93-10-7.3a23.84,23.84,0,0,0-3.47-1.72c-.05-2-.09-4-.14-6a24.3,24.3,0,0,1,3.54,1.65c3.13,2.13,6.18,4.39,9.27,6.6.51,2,1,4,1.54,6Z" transform="translate(-876 -468)"/><path class="cls-18" d="M1039.53,557.26q-1.5,3.79-3,7.59l-9.7-7.6,4.23-6.09Z" transform="translate(-876 -468)"/><path class="cls-19" d="M1023.78,495c-2.2-1.47-4.5-2.81-6.58-4.44q-7-5.44-13.85-11.16a21.45,21.45,0,0,1-2.86-3.75h3.75a11.64,11.64,0,0,0,1.8,2.68c3.31,2.76,6.7,5.41,10.11,8,2.51,1.93,5.09,3.76,7.63,5.63Z" transform="translate(-876 -468)"/><path class="cls-7" d="M1026.85,557.25l9.7,7.6-2.22,4.42-9.87-9.14Z" transform="translate(-876 -468)"/><path class="cls-20" d="M995.28,516.76c.23,1.23.45,2.46.67,3.7-1.26-.65-2.57-1.22-3.78-2s-2.39-1.67-3.57-2.51c-.12-1.34-.23-2.68-.36-4.2l-4.23-.9a18.88,18.88,0,0,0-1.67-2.95c-1.36-1.63-2.88-3.11-4.33-4.66l1.49-.06,4.52,1.4c2.05,4.67,6.29,6.82,10.43,9.1C994.73,514.74,995,515.75,995.28,516.76Z" transform="translate(-876 -468)"/><path class="cls-13" d="M1002.75,559.5c-3.09-2.21-6.14-4.47-9.27-6.6a24.3,24.3,0,0,0-3.54-1.65c-.16-2-.33-4-.49-6a29.66,29.66,0,0,1,3.41,1.76c3.08,2.11,6.1,4.31,9.14,6.48Z" transform="translate(-876 -468)"/><path class="cls-21" d="M1023.78,492c-2.54-1.87-5.12-3.7-7.63-5.63-3.41-2.63-6.8-5.28-10.11-8a11.64,11.64,0,0,1-1.8-2.68h4.5l15,12.61Z" transform="translate(-876 -468)"/><path class="cls-16" d="M931.55,497.26a12.14,12.14,0,0,1,3,1.19c3.43,2.6,6.83,5.25,10.08,8.06.91.79,1.29,2.2,1.91,3.32l-6-.5c-2-4.58-5.92-6.83-10.41-8.33Z" transform="translate(-876 -468)"/><path class="cls-5" d="M995.24,475.65q4.62,4.46,9.22,8.93c1.21,1.18,2.35,2.42,3.53,3.64l-5.24-.77-3-1.36a21.67,21.67,0,0,0-1.83-2.5c-2.6-2.68-5.27-5.3-7.91-7.94Z" transform="translate(-876 -468)"/><path class="cls-17" d="M918,490.23c-1.13-1.35-2.33-2.66-3.38-4.07a31.86,31.86,0,0,1-1.85-3.16l6.7-3.88,3.9,6.37Z" transform="translate(-876 -468)"/><path class="cls-22" d="M963,510.21c-2-2.07-3.91-4.2-6-6.19-1.73-1.67-3.61-3.19-5.43-4.78l.43-1.14,5.76.66c.69,1.22,1.16,2.67,2.12,3.61,2.93,2.86,6.06,5.51,9.1,8.24Z" transform="translate(-876 -468)"/><path class="cls-23" d="M969,580.53l-.76-5.1h18.35l.09,1.34A54.63,54.63,0,0,1,969,580.53Z" transform="translate(-876 -468)"/><path class="cls-24" d="M1039.53,557.26l-8.45-6.1,2.4-5.22,7.41,6.06Z" transform="translate(-876 -468)"/><path class="cls-5" d="M969,510.61c-3-2.73-6.17-5.38-9.1-8.24-1-.94-1.43-2.39-2.12-3.61l4.49.74,1.51.76c1,1.27,2,2.61,3.15,3.8,2.14,2.24,4.39,4.39,6.59,6.57Z" transform="translate(-876 -468)"/><path class="cls-25" d="M1040.89,552l-7.41-6.06q.82-2.22,1.66-4.44l6.53,3Z" transform="translate(-876 -468)"/><path class="cls-10" d="M990,475.65c2.64,2.64,5.31,5.26,7.91,7.94a21.67,21.67,0,0,1,1.83,2.5l-3,0L993,484.63a29.76,29.76,0,0,0-1.77-2.51c-1.88-2.18-3.82-4.32-5.73-6.47Z" transform="translate(-876 -468)"/><path class="cls-11" d="M923.35,485.49l-3.9-6.37,7.54-2.91,3,4.08Z" transform="translate(-876 -468)"/><path class="cls-26" d="M1013.24,475.65c7.94-.29,10.72,2.28,10.42,9.6-3.33-2.62-6.69-5.21-10-7.89C1013.32,477.06,1013.38,476.23,1013.24,475.65Z" transform="translate(-876 -468)"/><path class="cls-27" d="M1013.24,475.65c.14.58.08,1.41.44,1.71,3.29,2.68,6.65,5.27,10,7.89l.06,3-15-12.61Z" transform="translate(-876 -468)"/><path class="cls-13" d="M930.1,501c4.49,1.5,8.38,3.75,10.41,8.33C933.24,509.6,929.94,507,930.1,501Z" transform="translate(-876 -468)"/><path class="cls-28" d="M988.6,516c1.18.84,2.33,1.76,3.57,2.51s2.52,1.3,3.78,2c.27,1,.53,2,.8,3v3.75c-1.1-.72-2.15-1.52-3.3-2.14-1.57-.86-3.2-1.58-4.81-2.36Z" transform="translate(-876 -468)"/><path class="cls-7" d="M985.49,475.65c1.91,2.15,3.85,4.29,5.73,6.47a29.76,29.76,0,0,1,1.77,2.51l-4.48-.26-2.27-1.32c-.73-1.08-1.38-2.22-2.21-3.23-1.19-1.44-2.51-2.79-3.78-4.18Z" transform="translate(-876 -468)"/><path class="cls-5" d="M1012.43,492c2.39,1.49,4.76,3,7.17,4.44,1.36.82,2.78,1.55,4.18,2.31v4.5l-3.3-2.14-7.24-4.61-.75-.75Z" transform="translate(-876 -468)"/><path class="cls-5" d="M988.64,522.75c1.61.78,3.24,1.5,4.81,2.36,1.15.62,2.2,1.42,3.3,2.14.5,1.25,1,2.5,1.48,3.75,0,.5,0,1,0,1.49-1.8-.91-3.6-1.79-5.37-2.75-1.44-.78-2.84-1.65-4.25-2.49C988.63,525.75,988.64,524.25,988.64,522.75Z" transform="translate(-876 -468)"/><path class="cls-28" d="M1041.67,544.5l-6.53-3c.57-2.31,1.15-4.61,1.73-6.92l4.93,3.15Z" transform="translate(-876 -468)"/><path class="cls-10" d="M1013.24,496.5l7.24,4.61,3.3,2.14V507c-1.27-.66-2.6-1.25-3.81-2-2-1.27-4-2.66-5.92-4a5.3,5.3,0,0,0-.69,0Z" transform="translate(-876 -468)"/><path class="cls-11" d="M1023.78,511.5V516l-6.84-3q-.75-2.64-1.52-5.27l0-1.48Z" transform="translate(-876 -468)"/><path class="cls-15" d="M973.5,510.63c-2.2-2.18-4.45-4.33-6.59-6.57-1.14-1.19-2.11-2.53-3.15-3.8l6,1.48a29.33,29.33,0,0,0,2.49,3.42c1.84,1.92,3.83,3.69,5.76,5.52Z" transform="translate(-876 -468)"/><path class="cls-7" d="M1023.78,511.5l-8.34-5.24c-.46-1.76-.93-3.51-1.39-5.27,2,1.34,3.91,2.73,5.92,4,1.21.76,2.54,1.35,3.81,2Z" transform="translate(-876 -468)"/><path class="cls-9" d="M988.63,527.25c1.41.84,2.81,1.71,4.25,2.49,1.77,1,3.57,1.84,5.37,2.75.22,1.61.45,3.22.77,5.49l-9.78-6.23C989,530.25,988.83,528.75,988.63,527.25Z" transform="translate(-876 -468)"/><path class="cls-17" d="M1002,553.5c-3-2.17-6.06-4.37-9.14-6.48a29.66,29.66,0,0,0-3.41-1.76l-.08-3.76c3.91,3,7.88,5.83,11.67,8.92C1001.73,551,1001.7,552.45,1002,553.5Z" transform="translate(-876 -468)"/><path class="cls-16" d="M961.52,477.69l-7.47-2.05h16.44c.5,1.42,1,2.84,1.49,4.25l-4.45-.73Z" transform="translate(-876 -468)"/><path class="cls-8" d="M980.25,475.64c1.27,1.39,2.59,2.74,3.78,4.18.83,1,1.48,2.15,2.21,3.23l-6.71-.89c0-.23,0-.46,0-.68l-4.5-5.84Z" transform="translate(-876 -468)"/><path class="cls-14" d="M1016.94,513l6.84,3v6l-5.92-2.22c-.31-1.52-.63-3-.94-4.54Z" transform="translate(-876 -468)"/><path class="cls-7" d="M930,480.29l-3-4.08,6.69-2.4,1.64,3.35Z" transform="translate(-876 -468)"/><path class="cls-19" d="M1041.8,537.73l-4.93-3.15.51-6.57,3.6.74Q1041.4,533.25,1041.8,537.73Z" transform="translate(-876 -468)"/><path class="cls-19" d="M978,510.68c-1.93-1.83-3.92-3.6-5.76-5.52a29.33,29.33,0,0,1-2.49-3.42l1.5,0,3,.8c1,1.27,2.11,2.54,3.15,3.81,1.21,1.48,2.4,3,3.6,4.44Z" transform="translate(-876 -468)"/><path class="cls-18" d="M935.32,477.16l-1.64-3.35,10.56-2.68,0,2.18Z" transform="translate(-876 -468)"/><path class="cls-6" d="M1023.8,543.07c-.72-2-1.43-4.08-2.15-6.11l-1.14-8.16c0-.22.09-.45.14-.67l3.13-.88Q1023.8,535.16,1023.8,543.07Z" transform="translate(-876 -468)"/><path class="cls-13" d="M1023.78,527.25l-3.13.88c-.46-1-.93-2.09-1.4-3.13-.26-1.25-.53-2.5-.79-3.76l-.6-1.46,5.92,2.22Z" transform="translate(-876 -468)"/><path class="cls-12" d="M975,475.64l4.5,5.84-6.74-.76-.78-.83c-.49-1.41-1-2.83-1.49-4.25Z" transform="translate(-876 -468)"/><path class="cls-20" d="M1041,528.75l-3.6-.74v-11.3C1039.87,520.33,1040.49,524.52,1041,528.75Z" transform="translate(-876 -468)"/><path class="cls-29" d="M981,510.77c-1.2-1.48-2.39-3-3.6-4.44-1-1.27-2.1-2.54-3.15-3.81l3.75.77c1.45,1.55,3,3,4.33,4.66A18.88,18.88,0,0,1,984,510.9Z" transform="translate(-876 -468)"/><path class="cls-24" d="M944.27,473.31l0-2.18,8.53-1.18.15.78Z" transform="translate(-876 -468)"/><path class="cls-11" d="M1029.77,576.58l.58-.56Z" transform="translate(-876 -468)"/><path class="cls-23" d="M966,581l1.28-.3Z" transform="translate(-876 -468)"/><path class="cls-14" d="M1025.27,581.8l.62-.54Z" transform="translate(-876 -468)"/><path class="cls-3" d="M975.73,582.93l-.7.07A.55.55,0,0,1,975.73,582.93Z" transform="translate(-876 -468)"/><path class="cls-25" d="M1019.25,525c.47,1,.94,2.09,1.4,3.13,0,.22-.1.45-.14.67-1.68-.65-3.67-.93-5-2-6.1-5.09-12-10.45-18.06-15.58-.65-.55-2-.25-3.06-.34-.25-3.69-2-5.92-5.9-6.13-3-3.24-5.8-6.66-9-9.67-5.42-5.08-11.1-9.87-16.61-14.86a8.66,8.66,0,0,1-1.37-2.51l6,1.47a17.51,17.51,0,0,0,2.42,3.59c6.71,6.1,13.54,12.08,20.3,18.13,7.6,6.8,15.11,13.7,22.8,20.41C1014.84,522.85,1017.17,523.78,1019.25,525Z" transform="translate(-876 -468)"/><path class="cls-26" d="M988.5,504.73c3.87.21,5.65,2.44,5.9,6.13,0,1,0,1.91.05,2.87-4.14-2.28-8.38-4.43-10.43-9.1Z" transform="translate(-876 -468)"/><path class="cls-5" d="M994.45,513.73c0-1,0-1.91-.05-2.87,1,.09,2.41-.21,3.06.34,6.07,5.13,12,10.49,18.06,15.58,1.32,1.09,3.31,1.37,5,2l1.14,8.16c-3.44-2.51-7-4.84-10.29-7.55-4.57-3.77-8.88-7.86-13.39-11.72a8.15,8.15,0,0,0-2.69-.93C995,515.75,994.73,514.74,994.45,513.73Z" transform="translate(-876 -468)"/><path class="cls-27" d="M1012.43,492l.06,3.75a15.57,15.57,0,0,1-9.74-8.3l5.24.77C1010,488.9,1012,489.48,1012.43,492Z" transform="translate(-876 -468)"/><path class="cls-20" d="M1002.75,487.45a15.57,15.57,0,0,0,9.74,8.3l.75.75.12,4.47c-.48-.11-1.08-.07-1.42-.35-4.93-4.12-9.84-8.25-14.69-12.47-.43-.38-.33-1.38-.49-2.09l3,0Z" transform="translate(-876 -468)"/><path class="cls-29" d="M996.76,486.06c.16.71.06,1.71.49,2.09,4.85,4.22,9.76,8.35,14.69,12.47.34.28.94.24,1.42.35a5.3,5.3,0,0,1,.69,0c.46,1.76.93,3.51,1.39,5.27,0,.49,0,1,0,1.48A16.3,16.3,0,0,1,1012,506q-11-9.36-21.79-18.91a10.73,10.73,0,0,1-1.65-2.73l4.48.26Z" transform="translate(-876 -468)"/><path class="cls-19" d="M988.51,484.37a10.73,10.73,0,0,0,1.65,2.73Q1001,496.64,1012,506a16.3,16.3,0,0,0,3.47,1.73q.76,2.63,1.52,5.27c0,.74,0,1.48,0,2.23-2.35-1.75-4.8-3.37-7-5.26-7.15-6.07-14.3-12.15-21.28-18.41-3.24-2.91-6.07-6.26-9.09-9.42l6.71.9Z" transform="translate(-876 -468)"/><path class="cls-30" d="M1019.25,525c-2.08-1.22-4.41-2.15-6.2-3.71-7.69-6.71-15.2-13.61-22.8-20.41-6.76-6.05-13.59-12-20.3-18.13a17.51,17.51,0,0,1-2.42-3.59l4.45.73.78.83a34.8,34.8,0,0,0,3.83,4.82c4.61,4.12,9.48,7.94,14.09,12.06,8.32,7.42,16.51,15,24.81,22.44.75.67,2,.82,3,1.2C1018.72,522.5,1019,523.75,1019.25,525Z" transform="translate(-876 -468)"/><path class="cls-28" d="M1018.46,521.24c-1-.38-2.22-.53-3-1.2-8.3-7.44-16.49-15-24.81-22.44-4.61-4.12-9.48-7.94-14.09-12.06a34.8,34.8,0,0,1-3.83-4.82l6.74.76c0,.22,0,.45,0,.68,3,3.15,5.85,6.5,9.09,9.41,7,6.26,14.13,12.34,21.28,18.41,2.22,1.89,4.67,3.51,7,5.26.31,1.51.63,3,.94,4.54Z" transform="translate(-876 -468)"/></svg>